Latin-Mizra-Bold - Kerning, With Production Names.ufo
<glyph name="quotedbl" format="1">
  <advance width="322"/>
  <unicode hex="0022"/>
  <outline>
    <contour>
      <point x="290" y="307" type="line"/>
      <point x="290" y="401"/>
      <point x="291" y="468"/>
      <point x="302" y="549" type="curve"/>
      <point x="257" y="549"/>
      <point x="228" y="544"/>
      <point x="191" y="530" type="curve"/>
      <point x="191" y="376" type="line"/>
      <point x="217" y="353"/>
      <point x="240" y="330"/>
      <point x="259" y="307" type="curve"/>
    </contour>
    <contour>
      <point x="129" y="307" type="line"/>
      <point x="129" y="401"/>
      <point x="130" y="468"/>
      <point x="141" y="549" type="curve"/>
      <point x="96" y="549"/>
      <point x="67" y="544"/>
      <point x="30" y="530" type="curve"/>
      <point x="30" y="376" type="line"/>
      <point x="56" y="353"/>
      <point x="79" y="330"/>
      <point x="98" y="307" type="curve"/>
    </contour>
  </outline>
</glyph>
<glyph name="parenleft" format="1">
  <advance width="351"/>
  <unicode hex="0028"/>
  <outline>
    <contour>
      <point x="344" y="-104"/>
      <point x="346" y="-90"/>
      <point x="346" y="-77" type="curve" smooth="yes"/>
      <point x="346" y="-54"/>
      <point x="344" y="-33"/>
      <point x="341" y="-10" type="curve"/>
      <point x="303" y="-16"/>
      <point x="271" y="-19"/>
      <point x="245" y="-19" type="curve"/>
      <point x="205" y="-9"/>
      <point x="184" y="128"/>
      <point x="184" y="264" type="curve" smooth="yes"/>
      <point x="184" y="399"/>
      <point x="205" y="532"/>
      <point x="245" y="542" type="curve"/>
      <point x="271" y="542"/>
      <point x="303" y="539"/>
      <point x="341" y="533" type="curve"/>
      <point x="344" y="558"/>
      <point x="346" y="580"/>
      <point x="346" y="605" type="curve" smooth="yes"/>
      <point x="346" y="618"/>
      <point x="344" y="632"/>
      <point x="341" y="647" type="curve"/>
      <point x="138" y="647"/>
      <point x="35" y="506"/>
      <point x="35" y="264" type="curve" smooth="yes"/>
      <point x="35" y="23"/>
      <point x="138" y="-119"/>
      <point x="341" y="-119" type="curve"/>
    </contour>
  </outline>
</glyph>
<glyph name="asterisk" format="1">
  <advance width="403"/>
  <unicode hex="002A"/>
  <outline>
    <contour>
      <point x="217" y="253"/>
      <point x="249" y="259"/>
      <point x="291" y="275" type="curve"/>
      <point x="292" y="318"/>
      <point x="273" y="362"/>
      <point x="234" y="405" type="curve"/>
      <point x="294" y="404"/>
      <point x="325" y="402"/>
      <point x="376" y="390" type="curve"/>
      <point x="376" y="443"/>
      <point x="370" y="475"/>
      <point x="354" y="517" type="curve"/>
      <point x="311" y="518"/>
      <point x="267" y="499"/>
      <point x="224" y="459" type="curve"/>
      <point x="224" y="520"/>
      <point x="226" y="552"/>
      <point x="238" y="603" type="curve"/>
      <point x="185" y="603"/>
      <point x="153" y="597"/>
      <point x="111" y="581" type="curve"/>
      <point x="110" y="536"/>
      <point x="130" y="492"/>
      <point x="169" y="450" type="curve"/>
      <point x="110" y="450"/>
      <point x="78" y="452"/>
      <point x="27" y="464" type="curve"/>
      <point x="27" y="411"/>
      <point x="33" y="379"/>
      <point x="49" y="337" type="curve"/>
      <point x="93" y="336"/>
      <point x="137" y="355"/>
      <point x="179" y="395" type="curve"/>
      <point x="178" y="335"/>
      <point x="176" y="304"/>
      <point x="164" y="253" type="curve"/>
    </contour>
  </outline>
</glyph>
<glyph name="hyphen" format="1">
  <advance width="403"/>
  <unicode hex="002D"/>
  <outline>
    <contour>
      <point x="79" y="128"/>
      <point x="145" y="137"/>
      <point x="207" y="137" type="curve" smooth="yes"/>
      <point x="259" y="137"/>
      <point x="310" y="136"/>
      <point x="368" y="132" type="curve"/>
      <point x="368" y="183"/>
      <point x="364" y="227"/>
      <point x="350" y="278" type="curve"/>
      <point x="324" y="268"/>
      <point x="257" y="259"/>
      <point x="196" y="259" type="curve" smooth="yes"/>
      <point x="144" y="259"/>
      <point x="93" y="260"/>
      <point x="35" y="264" type="curve"/>
      <point x="35" y="213"/>
      <point x="39" y="169"/>
      <point x="53" y="118" type="curve"/>
    </contour>
  </outline>
</glyph>
<glyph name="slash" format="1">
  <advance width="324"/>
  <unicode hex="002F"/>
  <outline>
    <contour>
      <point x="101" y="-87"/>
      <point x="122" y="-83"/>
      <point x="140" y="-78" type="curve"/>
      <point x="145" y="17"/>
      <point x="249" y="439"/>
      <point x="294" y="605" type="curve"/>
      <point x="275" y="610"/>
      <point x="258" y="614"/>
      <point x="243" y="614" type="curve" smooth="yes"/>
      <point x="223" y="614"/>
      <point x="202" y="610"/>
      <point x="184" y="605" type="curve"/>
      <point x="179" y="510"/>
      <point x="75" y="88"/>
      <point x="30" y="-78" type="curve"/>
      <point x="49" y="-83"/>
      <point x="66" y="-87"/>
      <point x="81" y="-87" type="curve" smooth="yes"/>
    </contour>
  </outline>
</glyph>
<glyph name="zero" format="1">
  <advance width="581"/>
  <unicode hex="0030"/>
  <outline>
    <contour>
      <point x="439" y="-11"/>
      <point x="556" y="108"/>
      <point x="556" y="278" type="curve" smooth="yes"/>
      <point x="556" y="431"/>
      <point x="460" y="533"/>
      <point x="318" y="533" type="curve" smooth="yes"/>
      <point x="146" y="533"/>
      <point x="25" y="416"/>
      <point x="25" y="250" type="curve" smooth="yes"/>
      <point x="25" y="94"/>
      <point x="124" y="-11"/>
      <point x="271" y="-11" type="curve" smooth="yes"/>
    </contour>
    <contour>
      <point x="213" y="98"/>
      <point x="163" y="170"/>
      <point x="163" y="279" type="curve" smooth="yes"/>
      <point x="163" y="382"/>
      <point x="221" y="458"/>
      <point x="302" y="458" type="curve"/>
      <point x="374" y="442"/>
      <point x="417" y="373"/>
      <point x="417" y="273" type="curve" smooth="yes"/>
      <point x="417" y="165"/>
      <point x="367" y="98"/>
      <point x="287" y="98" type="curve" smooth="yes"/>
    </contour>
  </outline>
</glyph>
<glyph name="one" format="1">
  <advance width="348"/>
  <unicode hex="0031"/>
  <outline>
    <contour>
      <point x="259" y="-6"/>
      <point x="284" y="-4"/>
      <point x="308" y="0" type="curve"/>
      <point x="297" y="29"/>
      <point x="292" y="102"/>
      <point x="292" y="227" type="curve" smooth="yes"/>
      <point x="292" y="325"/>
      <point x="297" y="457"/>
      <point x="303" y="527" type="curve"/>
      <point x="274" y="531"/>
      <point x="249" y="533"/>
      <point x="227" y="533" type="curve"/>
      <point x="212" y="515"/>
      <point x="166" y="480"/>
      <point x="122" y="455" type="curve" smooth="yes"/>
      <point x="85" y="434"/>
      <point x="48" y="413"/>
      <point x="5" y="392" type="curve"/>
      <point x="19" y="355"/>
      <point x="33" y="325"/>
      <point x="56" y="293" type="curve"/>
      <point x="159" y="359" type="line"/>
      <point x="160" y="337"/>
      <point x="160" y="314"/>
      <point x="160" y="290" type="curve" smooth="yes"/>
      <point x="160" y="197"/>
      <point x="155" y="74"/>
      <point x="149" y="0" type="curve"/>
      <point x="181" y="-4"/>
      <point x="210" y="-6"/>
      <point x="235" y="-6" type="curve" smooth="yes"/>
    </contour>
  </outline>
</glyph>
<glyph name="two" format="1">
  <advance width="518"/>
  <unicode hex="0032"/>
  <outline>
    <contour>
      <point x="474" y="19"/>
      <point x="483" y="89"/>
      <point x="483" y="143" type="curve"/>
      <point x="440" y="127"/>
      <point x="365" y="117"/>
      <point x="292" y="117" type="curve" smooth="yes"/>
      <point x="272" y="117"/>
      <point x="249" y="118"/>
      <point x="229" y="120" type="curve"/>
      <point x="379" y="214"/>
      <point x="459" y="309"/>
      <point x="459" y="397" type="curve" smooth="yes"/>
      <point x="459" y="479"/>
      <point x="377" y="533"/>
      <point x="252" y="533" type="curve" smooth="yes"/>
      <point x="170" y="533"/>
      <point x="96" y="521"/>
      <point x="41" y="499" type="curve"/>
      <point x="41" y="456"/>
      <point x="63" y="390"/>
      <point x="89" y="358" type="curve"/>
      <point x="156" y="410"/>
      <point x="224" y="445"/>
      <point x="267" y="450" type="curve"/>
      <point x="299" y="445"/>
      <point x="316" y="423"/>
      <point x="316" y="390" type="curve" smooth="yes"/>
      <point x="316" y="312"/>
      <point x="244" y="205"/>
      <point x="35" y="48" type="curve"/>
      <point x="35" y="0" type="line"/>
      <point x="141" y="6"/>
      <point x="411" y="3"/>
      <point x="463" y="-5" type="curve"/>
    </contour>
  </outline>
</glyph>
<glyph name="four" format="1">
  <advance width="504"/>
  <unicode hex="0034"/>
  <outline>
    <contour>
      <point x="379" y="-6"/>
      <point x="404" y="-4"/>
      <point x="428" y="0" type="curve"/>
      <point x="420" y="31"/>
      <point x="416" y="56"/>
      <point x="413" y="100" type="curve"/>
      <point x="454" y="95" type="line"/>
      <point x="472" y="132"/>
      <point x="484" y="189"/>
      <point x="484" y="233" type="curve"/>
      <point x="466" y="226"/>
      <point x="443" y="222"/>
      <point x="413" y="219" type="curve"/>
      <point x="415" y="265"/>
      <point x="419" y="313"/>
      <point x="423" y="343" type="curve"/>
      <point x="391" y="347"/>
      <point x="362" y="349"/>
      <point x="337" y="349" type="curve" smooth="yes"/>
      <point x="313" y="349"/>
      <point x="288" y="347"/>
      <point x="264" y="343" type="curve"/>
      <point x="273" y="306"/>
      <point x="278" y="278"/>
      <point x="280" y="215" type="curve"/>
      <point x="227" y="215"/>
      <point x="172" y="216"/>
      <point x="127" y="217" type="curve"/>
      <point x="234" y="373"/>
      <point x="325" y="471"/>
      <point x="375" y="515" type="curve"/>
      <point x="327" y="539"/>
      <point x="279" y="546"/>
      <point x="217" y="546" type="curve"/>
      <point x="158" y="451"/>
      <point x="96" y="346"/>
      <point x="35" y="240" type="curve" smooth="yes"/>
      <point x="19" y="212"/>
      <point x="10" y="181"/>
      <point x="10" y="154" type="curve" smooth="yes"/>
      <point x="10" y="125"/>
      <point x="21" y="102"/>
      <point x="42" y="86" type="curve"/>
      <point x="77" y="100"/>
      <point x="131" y="106"/>
      <point x="232" y="106" type="curve" smooth="yes"/>
      <point x="278" y="106" type="line"/>
      <point x="276" y="66"/>
      <point x="273" y="26"/>
      <point x="269" y="0" type="curve"/>
      <point x="301" y="-4"/>
      <point x="330" y="-6"/>
      <point x="355" y="-6" type="curve" smooth="yes"/>
    </contour>
  </outline>
</glyph>
<glyph name="five" format="1">
  <advance width="476"/>
  <unicode hex="0035"/>
  <outline>
    <contour>
      <point x="365" y="-11"/>
      <point x="446" y="51"/>
      <point x="446" y="165" type="curve" smooth="yes"/>
      <point x="446" y="257"/>
      <point x="366" y="330"/>
      <point x="266" y="330" type="curve" smooth="yes"/>
      <point x="214" y="330"/>
      <point x="165" y="317"/>
      <point x="125" y="292" type="curve"/>
      <point x="132" y="394" type="line"/>
      <point x="172" y="396"/>
      <point x="229" y="397"/>
      <point x="289" y="397" type="curve" smooth="yes"/>
      <point x="343" y="397"/>
      <point x="373" y="392"/>
      <point x="396" y="379" type="curve"/>
      <point x="414" y="417"/>
      <point x="426" y="478"/>
      <point x="426" y="527" type="curve"/>
      <point x="393" y="520"/>
      <point x="323" y="516"/>
      <point x="243" y="516" type="curve" smooth="yes"/>
      <point x="156" y="516"/>
      <point x="109" y="519"/>
      <point x="83" y="527" type="curve"/>
      <point x="65" y="238" type="line"/>
      <point x="65" y="231"/>
      <point x="91" y="217"/>
      <point x="120" y="208" type="curve"/>
      <point x="164" y="240"/>
      <point x="209" y="259"/>
      <point x="238" y="259" type="curve"/>
      <point x="281" y="237"/>
      <point x="304" y="205"/>
      <point x="304" y="165" type="curve" smooth="yes"/>
      <point x="304" y="103"/>
      <point x="265" y="67"/>
      <point x="197" y="67" type="curve" smooth="yes"/>
      <point x="135" y="67"/>
      <point x="78" y="90"/>
      <point x="47" y="128" type="curve"/>
      <point x="35" y="97"/>
      <point x="30" y="71"/>
      <point x="30" y="35" type="curve"/>
      <point x="82" y="5"/>
      <point x="146" y="-11"/>
      <point x="214" y="-11" type="curve" smooth="yes"/>
    </contour>
  </outline>
</glyph>
<glyph name="six" format="1">
  <advance width="513"/>
  <unicode hex="0036"/>
  <outline>
    <contour>
      <point x="393" y="-9"/>
      <point x="488" y="64"/>
      <point x="488" y="168" type="curve" smooth="yes"/>
      <point x="488" y="271"/>
      <point x="411" y="340"/>
      <point x="297" y="340" type="curve" smooth="yes"/>
      <point x="254" y="340"/>
      <point x="212" y="326"/>
      <point x="174" y="300" type="curve"/>
      <point x="187" y="372"/>
      <point x="221" y="420"/>
      <point x="273" y="439" type="curve"/>
      <point x="303" y="439"/>
      <point x="361" y="408"/>
      <point x="406" y="368" type="curve"/>
      <point x="431" y="395"/>
      <point x="456" y="465"/>
      <point x="456" y="509" type="curve"/>
      <point x="419" y="525"/>
      <point x="373" y="533"/>
      <point x="320" y="533" type="curve" smooth="yes"/>
      <point x="127" y="533"/>
      <point x="25" y="426"/>
      <point x="25" y="223" type="curve" smooth="yes"/>
      <point x="25" y="84"/>
      <point x="118" y="-9"/>
      <point x="257" y="-9" type="curve" smooth="yes"/>
    </contour>
    <contour>
      <point x="203" y="67"/>
      <point x="167" y="124"/>
      <point x="167" y="221" type="curve" smooth="yes"/>
      <point x="167" y="225" type="line"/>
      <point x="190" y="245"/>
      <point x="217" y="260"/>
      <point x="247" y="269" type="curve"/>
      <point x="308" y="269"/>
      <point x="346" y="231"/>
      <point x="346" y="171" type="curve" smooth="yes"/>
      <point x="346" y="108"/>
      <point x="314" y="67"/>
      <point x="264" y="67" type="curve" smooth="yes"/>
    </contour>
  </outline>
</glyph>
<glyph name="seven" format="1">
  <advance width="474"/>
  <unicode hex="0037"/>
  <outline>
    <contour>
      <point x="280" y="115"/>
      <point x="351" y="247"/>
      <point x="426" y="375" type="curve" smooth="yes"/>
      <point x="447" y="411"/>
      <point x="454" y="442"/>
      <point x="454" y="477" type="curve" smooth="yes"/>
      <point x="454" y="493"/>
      <point x="446" y="525"/>
      <point x="422" y="546" type="curve"/>
      <point x="387" y="525"/>
      <point x="333" y="516"/>
      <point x="232" y="516" type="curve" smooth="yes"/>
      <point x="139" y="516"/>
      <point x="58" y="520"/>
      <point x="20" y="527" type="curve"/>
      <point x="20" y="480"/>
      <point x="32" y="419"/>
      <point x="50" y="379" type="curve"/>
      <point x="73" y="392"/>
      <point x="105" y="397"/>
      <point x="157" y="397" type="curve" smooth="yes"/>
      <point x="217" y="397"/>
      <point x="283" y="396"/>
      <point x="336" y="395" type="curve"/>
      <point x="219" y="200"/>
      <point x="112" y="79"/>
      <point x="60" y="25" type="curve"/>
      <point x="108" y="1"/>
      <point x="156" y="-6"/>
      <point x="218" y="-6" type="curve"/>
    </contour>
  </outline>
</glyph>
<glyph name="nine" format="1">
  <advance width="503"/>
  <unicode hex="0039"/>
  <outline>
    <contour>
      <point x="375" y="-11"/>
      <point x="478" y="98"/>
      <point x="478" y="291" type="curve" smooth="yes"/>
      <point x="478" y="436"/>
      <point x="384" y="533"/>
      <point x="244" y="533" type="curve" smooth="yes"/>
      <point x="115" y="533"/>
      <point x="25" y="452"/>
      <point x="25" y="336" type="curve" smooth="yes"/>
      <point x="25" y="233"/>
      <point x="98" y="164"/>
      <point x="206" y="164" type="curve" smooth="yes"/>
      <point x="251" y="164"/>
      <point x="295" y="179"/>
      <point x="334" y="208" type="curve"/>
      <point x="325" y="114"/>
      <point x="279" y="68"/>
      <point x="198" y="68" type="curve" smooth="yes"/>
      <point x="136" y="68"/>
      <point x="78" y="91"/>
      <point x="47" y="128" type="curve"/>
      <point x="35" y="93"/>
      <point x="30" y="67"/>
      <point x="30" y="35" type="curve"/>
      <point x="76" y="5"/>
      <point x="133" y="-11"/>
      <point x="194" y="-11" type="curve" smooth="yes"/>
    </contour>
    <contour>
      <point x="201" y="235"/>
      <point x="167" y="275"/>
      <point x="167" y="338" type="curve" smooth="yes"/>
      <point x="167" y="398"/>
      <point x="197" y="437"/>
      <point x="244" y="437" type="curve" smooth="yes"/>
      <point x="298" y="437"/>
      <point x="330" y="381"/>
      <point x="335" y="278" type="curve"/>
      <point x="312" y="259"/>
      <point x="285" y="244"/>
      <point x="256" y="235" type="curve"/>
    </contour>
  </outline>
</glyph>
<glyph name="greater" format="1">
  <advance width="533"/>
  <unicode hex="003E"/>
  <outline>
    <contour>
      <point x="213" y="118"/>
      <point x="351" y="174"/>
      <point x="477" y="218" type="curve"/>
      <point x="480" y="234"/>
      <point x="481" y="250"/>
      <point x="481" y="266" type="curve" smooth="yes"/>
      <point x="481" y="281"/>
      <point x="480" y="297"/>
      <point x="477" y="313" type="curve"/>
      <point x="351" y="358"/>
      <point x="213" y="413"/>
      <point x="94" y="468" type="curve"/>
      <point x="75" y="439"/>
      <point x="65" y="413"/>
      <point x="56" y="376" type="curve"/>
      <point x="350" y="266" type="line"/>
      <point x="56" y="155" type="line"/>
      <point x="64" y="122"/>
      <point x="77" y="90"/>
      <point x="94" y="63" type="curve"/>
    </contour>
  </outline>
</glyph>
<glyph name="at" format="1">
  <advance width="809"/>
  <unicode hex="0040"/>
  <outline>
    <contour>
      <point x="418" y="-124"/>
      <point x="462" y="-113"/>
      <point x="498" y="-94" type="curve"/>
      <point x="498" y="-67"/>
      <point x="494" y="-48"/>
      <point x="482" y="-24" type="curve"/>
      <point x="458" y="-42"/>
      <point x="414" y="-53"/>
      <point x="372" y="-53" type="curve" smooth="yes"/>
      <point x="221" y="-53"/>
      <point x="138" y="61"/>
      <point x="138" y="214" type="curve" smooth="yes"/>
      <point x="138" y="369"/>
      <point x="259" y="480"/>
      <point x="428" y="480" type="curve"/>
      <point x="588" y="455"/>
      <point x="682" y="354"/>
      <point x="682" y="206" type="curve" smooth="yes"/>
      <point x="682" y="110"/>
      <point x="643" y="67"/>
      <point x="611" y="67" type="curve" smooth="yes"/>
      <point x="585" y="67"/>
      <point x="562" y="83"/>
      <point x="562" y="139" type="curve" smooth="yes"/>
      <point x="562" y="203"/>
      <point x="569" y="247"/>
      <point x="569" y="292" type="curve" smooth="yes"/>
      <point x="569" y="363"/>
      <point x="519" y="402"/>
      <point x="426" y="402" type="curve" smooth="yes"/>
      <point x="360" y="402"/>
      <point x="291" y="369"/>
      <point x="253" y="320" type="curve"/>
      <point x="268" y="252" type="line"/>
      <point x="296" y="277"/>
      <point x="339" y="291"/>
      <point x="379" y="291" type="curve" smooth="yes"/>
      <point x="420" y="291"/>
      <point x="440" y="277"/>
      <point x="445" y="243" type="curve"/>
      <point x="306" y="231"/>
      <point x="237" y="193"/>
      <point x="237" y="125" type="curve" smooth="yes"/>
      <point x="237" y="81"/>
      <point x="263" y="48"/>
      <point x="329" y="48" type="curve" smooth="yes"/>
      <point x="364" y="48"/>
      <point x="407" y="61"/>
      <point x="447" y="83" type="curve"/>
      <point x="466" y="13"/>
      <point x="523" y="-14"/>
      <point x="580" y="-14" type="curve" smooth="yes"/>
      <point x="665" y="-14"/>
      <point x="764" y="63"/>
      <point x="764" y="251" type="curve" smooth="yes"/>
      <point x="764" y="458"/>
      <point x="630" y="595"/>
      <point x="429" y="595" type="curve" smooth="yes"/>
      <point x="204" y="595"/>
      <point x="45" y="438"/>
      <point x="45" y="212" type="curve" smooth="yes"/>
      <point x="45" y="11"/>
      <point x="175" y="-124"/>
      <point x="369" y="-124" type="curve" smooth="yes"/>
    </contour>
    <contour>
      <point x="374" y="120"/>
      <point x="366" y="136"/>
      <point x="366" y="150" type="curve" smooth="yes"/>
      <point x="366" y="176"/>
      <point x="394" y="193"/>
      <point x="445" y="198" type="curve"/>
      <point x="442" y="179"/>
      <point x="440" y="155"/>
      <point x="440" y="132" type="curve"/>
      <point x="422" y="122"/>
      <point x="402" y="115"/>
      <point x="384" y="113" type="curve"/>
    </contour>
  </outline>
</glyph>
<glyph name="A" format="1">
  <advance width="552"/>
  <unicode hex="0041"/>
  <outline>
    <contour>
      <point x="494" y="-5"/>
      <point x="522" y="-3"/>
      <point x="549" y="2" type="curve"/>
      <point x="508" y="75"/>
      <point x="383" y="411"/>
      <point x="344" y="529" type="curve"/>
      <point x="301" y="535"/>
      <point x="257" y="535"/>
      <point x="208" y="529" type="curve"/>
      <point x="169" y="411"/>
      <point x="44" y="75"/>
      <point x="3" y="2" type="curve"/>
      <point x="20" y="-2"/>
      <point x="38" y="-4"/>
      <point x="55" y="-4" type="curve" smooth="yes"/>
      <point x="68" y="-4"/>
      <point x="83" y="-2"/>
      <point x="100" y="2" type="curve"/>
      <point x="109" y="30"/>
      <point x="124" y="72"/>
      <point x="142" y="120" type="curve"/>
      <point x="163" y="123"/>
      <point x="195" y="124"/>
      <point x="235" y="124" type="curve" smooth="yes"/>
      <point x="272" y="124"/>
      <point x="314" y="123"/>
      <point x="350" y="121" type="curve"/>
      <point x="368" y="73"/>
      <point x="383" y="30"/>
      <point x="392" y="2" type="curve"/>
      <point x="421" y="-3"/>
      <point x="446" y="-5"/>
      <point x="467" y="-5" type="curve" smooth="yes"/>
    </contour>
    <contour>
      <point x="241" y="203"/>
      <point x="205" y="204"/>
      <point x="173" y="206" type="curve"/>
      <point x="198" y="273"/>
      <point x="225" y="343"/>
      <point x="246" y="395" type="curve"/>
      <point x="267" y="346"/>
      <point x="293" y="276"/>
      <point x="319" y="205" type="curve"/>
      <point x="305" y="204"/>
      <point x="288" y="203"/>
      <point x="273" y="203" type="curve" smooth="yes"/>
    </contour>
    <contour>
      <point x="549" y="2" type="move" name="ogonek"/>
    </contour>
    <contour>
      <point x="276" y="0" type="move" name="bottom"/>
    </contour>
    <contour>
      <point x="276" y="527" type="move" name="top"/>
    </contour>
  </outline>
</glyph>
<glyph name="C" format="1">
  <advance width="500"/>
  <unicode hex="0043"/>
  <outline>
    <contour>
      <point x="352" y="-11"/>
      <point x="438" y="25"/>
      <point x="485" y="78" type="curve"/>
      <point x="467" y="147" type="line"/>
      <point x="431" y="120"/>
      <point x="367" y="102"/>
      <point x="311" y="102" type="curve" smooth="yes"/>
      <point x="218" y="102"/>
      <point x="172" y="157"/>
      <point x="172" y="269" type="curve" smooth="yes"/>
      <point x="172" y="351"/>
      <point x="217" y="431"/>
      <point x="273" y="449" type="curve"/>
      <point x="307" y="449"/>
      <point x="371" y="414"/>
      <point x="421" y="368" type="curve"/>
      <point x="445" y="389"/>
      <point x="471" y="462"/>
      <point x="471" y="509" type="curve"/>
      <point x="434" y="525"/>
      <point x="382" y="533"/>
      <point x="320" y="533" type="curve" smooth="yes"/>
      <point x="149" y="533"/>
      <point x="30" y="413"/>
      <point x="30" y="241" type="curve" smooth="yes"/>
      <point x="30" y="79"/>
      <point x="115" y="-11"/>
      <point x="270" y="-11" type="curve" smooth="yes"/>
    </contour>
    <contour>
      <point x="278" y="527" type="move" name="top"/>
    </contour>
    <contour>
      <point x="258" y="0" type="move" name="bottom"/>
    </contour>
  </outline>
</glyph>
<glyph name="D" format="1">
  <advance width="590"/>
  <unicode hex="0044"/>
  <outline>
    <contour>
      <point x="433" y="-6"/>
      <point x="560" y="105"/>
      <point x="560" y="266" type="curve" smooth="yes"/>
      <point x="560" y="437"/>
      <point x="456" y="532"/>
      <point x="268" y="532" type="curve" smooth="yes"/>
      <point x="183" y="532"/>
      <point x="94" y="521"/>
      <point x="45" y="505" type="curve"/>
      <point x="56" y="478"/>
      <point x="61" y="408"/>
      <point x="61" y="300" type="curve" smooth="yes"/>
      <point x="61" y="199"/>
      <point x="56" y="73"/>
      <point x="50" y="10" type="curve"/>
      <point x="104" y="0"/>
      <point x="182" y="-6"/>
      <point x="248" y="-6" type="curve" smooth="yes"/>
    </contour>
    <contour>
      <point x="271" y="68"/>
      <point x="235" y="75"/>
      <point x="196" y="87" type="curve"/>
      <point x="194" y="124"/>
      <point x="193" y="171"/>
      <point x="193" y="227" type="curve" smooth="yes"/>
      <point x="193" y="295"/>
      <point x="195" y="375"/>
      <point x="199" y="437" type="curve"/>
      <point x="214" y="442"/>
      <point x="230" y="444"/>
      <point x="247" y="444" type="curve" smooth="yes"/>
      <point x="355" y="444"/>
      <point x="418" y="386"/>
      <point x="418" y="248" type="curve" smooth="yes"/>
      <point x="418" y="165"/>
      <point x="363" y="81"/>
      <point x="295" y="68" type="curve"/>
    </contour>
    <contour>
      <point x="172" y="264" type="move" name="center"/>
    </contour>
    <contour>
      <point x="295" y="0" type="move" name="bottom"/>
    </contour>
    <contour>
      <point x="295" y="527" type="move" name="top"/>
    </contour>
  </outline>
</glyph>
<glyph name="G" format="1">
  <advance width="533"/>
  <unicode hex="0047"/>
  <outline>
    <contour>
      <point x="351" y="-11"/>
      <point x="438" y="17"/>
      <point x="485" y="58" type="curve"/>
      <point x="486" y="123"/>
      <point x="490" y="195"/>
      <point x="495" y="245" type="curve"/>
      <point x="462" y="249"/>
      <point x="437" y="251"/>
      <point x="414" y="251" type="curve" smooth="yes"/>
      <point x="389" y="251"/>
      <point x="362" y="249"/>
      <point x="341" y="245" type="curve"/>
      <point x="351" y="222"/>
      <point x="356" y="174"/>
      <point x="357" y="96" type="curve"/>
      <point x="342" y="93"/>
      <point x="326" y="92"/>
      <point x="311" y="92" type="curve" smooth="yes"/>
      <point x="218" y="92"/>
      <point x="172" y="150"/>
      <point x="172" y="269" type="curve" smooth="yes"/>
      <point x="172" y="351"/>
      <point x="217" y="431"/>
      <point x="273" y="449" type="curve"/>
      <point x="310" y="449"/>
      <point x="380" y="413"/>
      <point x="431" y="368" type="curve"/>
      <point x="455" y="389"/>
      <point x="481" y="462"/>
      <point x="481" y="509" type="curve"/>
      <point x="444" y="525"/>
      <point x="388" y="533"/>
      <point x="320" y="533" type="curve" smooth="yes"/>
      <point x="149" y="533"/>
      <point x="30" y="413"/>
      <point x="30" y="241" type="curve" smooth="yes"/>
      <point x="30" y="79"/>
      <point x="115" y="-11"/>
      <point x="270" y="-11" type="curve" smooth="yes"/>
    </contour>
    <contour>
      <point x="287" y="527" type="move" name="top"/>
    </contour>
    <contour>
      <point x="267" y="0" type="move" name="bottom"/>
    </contour>
  </outline>
</glyph>
<glyph name="K" format="1">
  <advance width="540"/>
  <unicode hex="004B"/>
  <outline>
    <contour>
      <point x="160" y="-6"/>
      <point x="185" y="-4"/>
      <point x="209" y="0" type="curve"/>
      <point x="199" y="26"/>
      <point x="194" y="85"/>
      <point x="193" y="184" type="curve"/>
      <point x="202" y="195"/>
      <point x="212" y="206"/>
      <point x="222" y="217" type="curve"/>
      <point x="294" y="115"/>
      <point x="349" y="34"/>
      <point x="372" y="-6" type="curve"/>
      <point x="438" y="-6"/>
      <point x="489" y="-1"/>
      <point x="540" y="15" type="curve"/>
      <point x="481" y="59"/>
      <point x="392" y="185"/>
      <point x="310" y="317" type="curve"/>
      <point x="378" y="394"/>
      <point x="452" y="472"/>
      <point x="514" y="533" type="curve"/>
      <point x="465" y="533"/>
      <point x="423" y="531"/>
      <point x="366" y="522" type="curve"/>
      <point x="366" y="493"/>
      <point x="348" y="447"/>
      <point x="193" y="284" type="curve"/>
      <point x="195" y="371"/>
      <point x="199" y="470"/>
      <point x="204" y="527" type="curve"/>
      <point x="175" y="531"/>
      <point x="150" y="533"/>
      <point x="128" y="533" type="curve" smooth="yes"/>
      <point x="99" y="533"/>
      <point x="70" y="531"/>
      <point x="45" y="527" type="curve"/>
      <point x="55" y="497"/>
      <point x="61" y="413"/>
      <point x="61" y="290" type="curve" smooth="yes"/>
      <point x="61" y="197"/>
      <point x="56" y="74"/>
      <point x="50" y="0" type="curve"/>
      <point x="82" y="-4"/>
      <point x="111" y="-6"/>
      <point x="136" y="-6" type="curve" smooth="yes"/>
    </contour>
    <contour>
      <point x="270" y="527" type="move" name="top"/>
    </contour>
    <contour>
      <point x="270" y="0" type="move" name="bottom"/>
    </contour>
  </outline>
</glyph>
<glyph name="L" format="1">
  <advance width="425"/>
  <unicode hex="004C"/>
  <outline>
    <contour>
      <point x="93" y="2"/>
      <point x="162" y="4"/>
      <point x="233" y="4" type="curve" smooth="yes"/>
      <point x="294" y="4"/>
      <point x="357" y="2"/>
      <point x="399" y="-3" type="curve"/>
      <point x="412" y="17"/>
      <point x="420" y="81"/>
      <point x="420" y="123" type="curve"/>
      <point x="385" y="106"/>
      <point x="328" y="96"/>
      <point x="278" y="96" type="curve" smooth="yes"/>
      <point x="251" y="96"/>
      <point x="221" y="99"/>
      <point x="196" y="102" type="curve"/>
      <point x="194" y="135"/>
      <point x="193" y="177"/>
      <point x="193" y="227" type="curve" smooth="yes"/>
      <point x="193" y="331"/>
      <point x="198" y="461"/>
      <point x="204" y="527" type="curve"/>
      <point x="173" y="531"/>
      <point x="147" y="533"/>
      <point x="123" y="533" type="curve" smooth="yes"/>
      <point x="97" y="533"/>
      <point x="71" y="531"/>
      <point x="45" y="527" type="curve"/>
      <point x="56" y="497"/>
      <point x="61" y="410"/>
      <point x="61" y="290" type="curve" smooth="yes"/>
      <point x="61" y="185"/>
      <point x="56" y="63"/>
      <point x="50" y="-3" type="curve"/>
    </contour>
    <contour>
      <point x="218" y="0" type="move" name="bottom"/>
    </contour>
    <contour>
      <point x="133" y="527" type="move" name="top"/>
    </contour>
    <contour>
      <point x="315" y="407" type="move" name="topright"/>
    </contour>
    <contour>
      <point x="129" y="264" type="move" name="center"/>
    </contour>
  </outline>
</glyph>
<glyph name="O" format="1">
  <advance width="611"/>
  <unicode hex="004F"/>
  <outline>
    <contour>
      <point x="456" y="-13"/>
      <point x="581" y="105"/>
      <point x="581" y="272" type="curve" smooth="yes"/>
      <point x="581" y="430"/>
      <point x="478" y="535"/>
      <point x="324" y="535" type="curve" smooth="yes"/>
      <point x="151" y="535"/>
      <point x="30" y="415"/>
      <point x="30" y="244" type="curve" smooth="yes"/>
      <point x="30" y="91"/>
      <point x="130" y="-13"/>
      <point x="279" y="-13" type="curve" smooth="yes"/>
    </contour>
    <contour>
      <point x="224" y="62"/>
      <point x="172" y="131"/>
      <point x="172" y="235" type="curve" smooth="yes"/>
      <point x="172" y="340"/>
      <point x="234" y="416"/>
      <point x="319" y="416" type="curve"/>
      <point x="391" y="397"/>
      <point x="439" y="320"/>
      <point x="439" y="224" type="curve" smooth="yes"/>
      <point x="439" y="125"/>
      <point x="386" y="62"/>
      <point x="302" y="62" type="curve" smooth="yes"/>
    </contour>
    <contour>
      <point x="306" y="0" type="move" name="bottom"/>
    </contour>
    <contour>
      <point x="550" y="10" type="move" name="ogonek"/>
    </contour>
    <contour>
      <point x="306" y="527" type="move" name="top"/>
    </contour>
    <contour>
      <point x="591" y="527" type="move" name="topright"/>
    </contour>
    <contour>
      <point x="20" y="527" type="move" name="topleft"/>
    </contour>
    <contour>
      <point x="306" y="264" type="move" name="center"/>
    </contour>
  </outline>
</glyph>
<glyph name="U" format="1">
  <advance width="535"/>
  <unicode hex="0055"/>
  <outline>
    <contour>
      <point x="445" y="-5"/>
      <point x="492" y="98"/>
      <point x="492" y="205" type="curve" smooth="yes"/>
      <point x="492" y="305"/>
      <point x="496" y="453"/>
      <point x="500" y="527" type="curve"/>
      <point x="480" y="531"/>
      <point x="463" y="533"/>
      <point x="448" y="533" type="curve" smooth="yes"/>
      <point x="432" y="533"/>
      <point x="414" y="531"/>
      <point x="398" y="527" type="curve"/>
      <point x="404" y="485"/>
      <point x="406" y="329"/>
      <point x="406" y="207" type="curve" smooth="yes"/>
      <point x="406" y="148"/>
      <point x="382" y="95"/>
      <point x="291" y="95" type="curve" smooth="yes"/>
      <point x="226" y="95"/>
      <point x="188" y="132"/>
      <point x="188" y="220" type="curve" smooth="yes"/>
      <point x="188" y="326"/>
      <point x="191" y="459"/>
      <point x="194" y="527" type="curve"/>
      <point x="165" y="531"/>
      <point x="140" y="533"/>
      <point x="118" y="533" type="curve" smooth="yes"/>
      <point x="91" y="533"/>
      <point x="62" y="531"/>
      <point x="35" y="527" type="curve"/>
      <point x="46" y="484"/>
      <point x="51" y="323"/>
      <point x="51" y="200" type="curve" smooth="yes"/>
      <point x="51" y="69"/>
      <point x="132" y="-5"/>
      <point x="271" y="-5" type="curve" smooth="yes"/>
    </contour>
    <contour>
      <point x="373" y="11" type="move" name="ogonek"/>
    </contour>
    <contour>
      <point x="288" y="527" type="move" name="top"/>
    </contour>
    <contour>
      <point x="515" y="527" type="move" name="topright"/>
    </contour>
    <contour>
      <point x="268" y="0" type="move" name="bottom"/>
    </contour>
  </outline>
</glyph>
<glyph name="W" format="1">
  <advance width="822"/>
  <unicode hex="0057"/>
  <outline>
    <contour>
      <point x="333" y="27" type="line"/>
      <point x="353" y="96"/>
      <point x="382" y="188"/>
      <point x="411" y="279" type="curve"/>
      <point x="461" y="112"/>
      <point x="485" y="-9"/>
      <point x="559" y="-9" type="curve"/>
      <point x="654" y="27" type="line"/>
      <point x="695" y="168"/>
      <point x="773" y="409"/>
      <point x="817" y="533" type="curve"/>
      <point x="773" y="533"/>
      <point x="740" y="530"/>
      <point x="704" y="522" type="curve"/>
      <point x="715" y="490"/>
      <point x="685" y="370"/>
      <point x="604" y="124" type="curve"/>
      <point x="590" y="157"/>
      <point x="574" y="200"/>
      <point x="555" y="260" type="curve" smooth="yes"/>
      <point x="533" y="333"/>
      <point x="506" y="458"/>
      <point x="495" y="533" type="curve"/>
      <point x="432" y="533"/>
      <point x="383" y="528"/>
      <point x="326" y="512" type="curve"/>
      <point x="369" y="407" type="line"/>
      <point x="352" y="342"/>
      <point x="324" y="249"/>
      <point x="283" y="124" type="curve"/>
      <point x="269" y="157"/>
      <point x="253" y="200"/>
      <point x="234" y="260" type="curve" smooth="yes"/>
      <point x="207" y="350"/>
      <point x="183" y="471"/>
      <point x="175" y="533" type="curve"/>
      <point x="108" y="533"/>
      <point x="57" y="526"/>
      <point x="5" y="512" type="curve"/>
      <point x="129" y="237"/>
      <point x="133" y="-9"/>
      <point x="238" y="-9" type="curve"/>
    </contour>
    <contour>
      <point x="411" y="527" type="move" name="top"/>
    </contour>
    <contour>
      <point x="411" y="0" type="move" name="bottom"/>
    </contour>
  </outline>
</glyph>
<glyph name="X" format="1">
  <advance width="527"/>
  <unicode hex="0058"/>
  <outline>
    <contour>
      <point x="39" y="-6"/>
      <point x="77" y="-5"/>
      <point x="125" y="0" type="curve"/>
      <point x="131" y="25"/>
      <point x="165" y="84"/>
      <point x="244" y="185" type="curve"/>
      <point x="305" y="93"/>
      <point x="356" y="13"/>
      <point x="364" y="-6" type="curve"/>
      <point x="430" y="-6"/>
      <point x="481" y="-1"/>
      <point x="532" y="15" type="curve"/>
      <point x="506" y="35"/>
      <point x="413" y="165"/>
      <point x="329" y="290" type="curve"/>
      <point x="386" y="366"/>
      <point x="465" y="465"/>
      <point x="528" y="533" type="curve"/>
      <point x="484" y="533"/>
      <point x="446" y="532"/>
      <point x="398" y="527" type="curve"/>
      <point x="392" y="503"/>
      <point x="360" y="447"/>
      <point x="287" y="352" type="curve"/>
      <point x="229" y="440"/>
      <point x="182" y="515"/>
      <point x="174" y="533" type="curve"/>
      <point x="108" y="533"/>
      <point x="56" y="528"/>
      <point x="6" y="512" type="curve"/>
      <point x="31" y="493"/>
      <point x="119" y="369"/>
      <point x="202" y="247" type="curve"/>
      <point x="144" y="171"/>
      <point x="61" y="65"/>
      <point x="-5" y="-6" type="curve"/>
    </contour>
  </outline>
</glyph>
<glyph name="bracketleft" format="1">
  <advance width="358"/>
  <unicode hex="005B"/>
  <outline>
    <contour>
      <point x="326" y="-101"/>
      <point x="328" y="-82"/>
      <point x="328" y="-63" type="curve" smooth="yes"/>
      <point x="328" y="-42"/>
      <point x="326" y="-18"/>
      <point x="323" y="0" type="curve"/>
      <point x="291" y="-3"/>
      <point x="241" y="-6"/>
      <point x="189" y="-7" type="curve"/>
      <point x="185" y="54"/>
      <point x="183" y="142"/>
      <point x="183" y="285" type="curve" smooth="yes"/>
      <point x="183" y="344"/>
      <point x="185" y="450"/>
      <point x="189" y="535" type="curve"/>
      <point x="238" y="533"/>
      <point x="284" y="531"/>
      <point x="315" y="528" type="curve"/>
      <point x="318" y="546"/>
      <point x="320" y="570"/>
      <point x="320" y="591" type="curve" smooth="yes"/>
      <point x="320" y="610"/>
      <point x="318" y="629"/>
      <point x="315" y="652" type="curve"/>
      <point x="293" y="645"/>
      <point x="242" y="639"/>
      <point x="151" y="639" type="curve" smooth="yes"/>
      <point x="113" y="639"/>
      <point x="76" y="640"/>
      <point x="45" y="643" type="curve"/>
      <point x="55" y="585"/>
      <point x="61" y="489"/>
      <point x="61" y="285" type="curve" smooth="yes"/>
      <point x="61" y="194"/>
      <point x="55" y="-20"/>
      <point x="50" y="-116" type="curve"/>
      <point x="91" y="-112"/>
      <point x="127" y="-111"/>
      <point x="159" y="-111" type="curve" smooth="yes"/>
      <point x="250" y="-111"/>
      <point x="301" y="-117"/>
      <point x="323" y="-124" type="curve"/>
    </contour>
  </outline>
</glyph>
<glyph name="a" format="1">
  <advance width="437"/>
  <unicode hex="0061"/>
  <outline>
    <contour>
      <point x="163" y="-11"/>
      <point x="214" y="7"/>
      <point x="260" y="36" type="curve"/>
      <point x="269" y="16"/>
      <point x="282" y="1"/>
      <point x="301" y="-11" type="curve"/>
      <point x="342" y="-7"/>
      <point x="384" y="7"/>
      <point x="417" y="27" type="curve"/>
      <point x="386" y="60"/>
      <point x="378" y="83"/>
      <point x="378" y="132" type="curve" smooth="yes"/>
      <point x="378" y="179"/>
      <point x="387" y="231"/>
      <point x="387" y="284" type="curve" smooth="yes"/>
      <point x="387" y="370"/>
      <point x="331" y="418"/>
      <point x="229" y="418" type="curve" smooth="yes"/>
      <point x="157" y="418"/>
      <point x="81" y="378"/>
      <point x="39" y="319" type="curve"/>
      <point x="47" y="253" type="line"/>
      <point x="81" y="276"/>
      <point x="132" y="290"/>
      <point x="178" y="290" type="curve" smooth="yes"/>
      <point x="227" y="290"/>
      <point x="250" y="272"/>
      <point x="254" y="229" type="curve"/>
      <point x="97" y="216"/>
      <point x="20" y="168"/>
      <point x="20" y="83" type="curve" smooth="yes"/>
      <point x="20" y="28"/>
      <point x="51" y="-11"/>
      <point x="122" y="-11" type="curve" smooth="yes"/>
    </contour>
    <contour>
      <point x="167" y="70"/>
      <point x="158" y="90"/>
      <point x="158" y="108" type="curve" smooth="yes"/>
      <point x="158" y="145"/>
      <point x="192" y="169"/>
      <point x="254" y="176" type="curve"/>
      <point x="252" y="145"/>
      <point x="248" y="125"/>
      <point x="248" y="97" type="curve" smooth="yes"/>
      <point x="248" y="86" type="line"/>
      <point x="226" y="72"/>
      <point x="202" y="63"/>
      <point x="180" y="60" type="curve"/>
    </contour>
    <contour>
      <point x="356" y="0" type="move" name="ogonek"/>
    </contour>
    <contour>
      <point x="219" y="0" type="move" name="bottom"/>
    </contour>
    <contour>
      <point x="219" y="407" type="move" name="top"/>
    </contour>
  </outline>
</glyph>
<glyph name="d" format="1">
  <advance width="500"/>
  <unicode hex="0064"/>
  <outline>
    <contour>
      <point x="241" y="-12"/>
      <point x="284" y="6"/>
      <point x="319" y="36" type="curve"/>
      <point x="326" y="16"/>
      <point x="338" y="1"/>
      <point x="354" y="-11" type="curve"/>
      <point x="399" y="-6"/>
      <point x="445" y="12"/>
      <point x="480" y="37" type="curve"/>
      <point x="449" y="79"/>
      <point x="441" y="108"/>
      <point x="441" y="172" type="curve" smooth="yes"/>
      <point x="441" y="345"/>
      <point x="446" y="482"/>
      <point x="453" y="547" type="curve"/>
      <point x="398" y="547"/>
      <point x="344" y="543"/>
      <point x="296" y="527" type="curve"/>
      <point x="305" y="494"/>
      <point x="311" y="449"/>
      <point x="313" y="387" type="curve"/>
      <point x="280" y="408"/>
      <point x="244" y="418"/>
      <point x="205" y="418" type="curve" smooth="yes"/>
      <point x="90" y="418"/>
      <point x="30" y="342"/>
      <point x="30" y="194" type="curve" smooth="yes"/>
      <point x="30" y="59"/>
      <point x="88" y="-12"/>
      <point x="200" y="-12" type="curve" smooth="yes"/>
    </contour>
    <contour>
      <point x="194" y="70"/>
      <point x="167" y="116"/>
      <point x="167" y="178" type="curve" smooth="yes"/>
      <point x="167" y="261"/>
      <point x="197" y="300"/>
      <point x="258" y="300" type="curve" smooth="yes"/>
      <point x="278" y="300"/>
      <point x="297" y="295"/>
      <point x="315" y="287" type="curve"/>
      <point x="315" y="223"/>
      <point x="311" y="158"/>
      <point x="311" y="94" type="curve"/>
      <point x="287" y="75"/>
      <point x="261" y="63"/>
      <point x="237" y="60" type="curve"/>
    </contour>
    <contour>
      <point x="250" y="0" type="move" name="bottom"/>
    </contour>
    <contour>
      <point x="250" y="407" type="move" name="top"/>
    </contour>
    <contour>
      <point x="554" y="407" type="move" name="topright"/>
    </contour>
    <contour>
      <point x="359" y="470" type="move" name="center"/>
    </contour>
  </outline>
</glyph>
<glyph name="g" format="1">
  <advance width="449"/>
  <unicode hex="0067"/>
  <outline>
    <contour>
      <point x="339" y="-180"/>
      <point x="438" y="-119"/>
      <point x="438" y="-38" type="curve" smooth="yes"/>
      <point x="438" y="28"/>
      <point x="391" y="65"/>
      <point x="304" y="72" type="curve" smooth="yes"/>
      <point x="116" y="82" type="line"/>
      <point x="116" y="104"/>
      <point x="152" y="119"/>
      <point x="209" y="119" type="curve" smooth="yes"/>
      <point x="325" y="119"/>
      <point x="407" y="184"/>
      <point x="407" y="277" type="curve" smooth="yes"/>
      <point x="407" y="298"/>
      <point x="403" y="317"/>
      <point x="395" y="334" type="curve"/>
      <point x="416" y="337"/>
      <point x="434" y="343"/>
      <point x="449" y="351" type="curve"/>
      <point x="449" y="376"/>
      <point x="437" y="423"/>
      <point x="423" y="454" type="curve"/>
      <point x="392" y="427"/>
      <point x="359" y="406"/>
      <point x="332" y="398" type="curve"/>
      <point x="306" y="411"/>
      <point x="274" y="418"/>
      <point x="237" y="418" type="curve" smooth="yes"/>
      <point x="123" y="418"/>
      <point x="44" y="353"/>
      <point x="44" y="260" type="curve" smooth="yes"/>
      <point x="44" y="211"/>
      <point x="66" y="172"/>
      <point x="103" y="147" type="curve"/>
      <point x="60" y="125"/>
      <point x="34" y="90"/>
      <point x="34" y="49" type="curve" smooth="yes"/>
      <point x="34" y="23"/>
      <point x="45" y="0"/>
      <point x="65" y="-14" type="curve"/>
      <point x="37" y="-49"/>
      <point x="20" y="-94"/>
      <point x="20" y="-137" type="curve"/>
      <point x="59" y="-164"/>
      <point x="127" y="-180"/>
      <point x="207" y="-180" type="curve" smooth="yes"/>
    </contour>
    <contour>
      <point x="181" y="-103"/>
      <point x="142" y="-88"/>
      <point x="118" y="-61" type="curve"/>
      <point x="120" y="-51"/>
      <point x="123" y="-41"/>
      <point x="127" y="-32" type="curve"/>
      <point x="264" y="-40" type="line" smooth="yes"/>
      <point x="310" y="-42"/>
      <point x="327" y="-46"/>
      <point x="327" y="-65" type="curve" smooth="yes"/>
      <point x="327" y="-85"/>
      <point x="289" y="-103"/>
      <point x="232" y="-103" type="curve" smooth="yes"/>
    </contour>
    <contour>
      <point x="190" y="184"/>
      <point x="167" y="209"/>
      <point x="167" y="248" type="curve" smooth="yes"/>
      <point x="167" y="289"/>
      <point x="194" y="319"/>
      <point x="232" y="319" type="curve"/>
      <point x="264" y="307"/>
      <point x="284" y="282"/>
      <point x="284" y="246" type="curve" smooth="yes"/>
      <point x="284" y="207"/>
      <point x="261" y="184"/>
      <point x="224" y="184" type="curve" smooth="yes"/>
    </contour>
    <contour>
      <point x="227" y="407" type="move" name="top"/>
    </contour>
    <contour>
      <point x="227" y="0" type="move" name="bottom"/>
    </contour>
  </outline>
</glyph>
<glyph name="h" format="1">
  <advance width="480"/>
  <unicode hex="0068"/>
  <outline>
    <contour>
      <point x="145" y="-6"/>
      <point x="171" y="-4"/>
      <point x="197" y="0" type="curve"/>
      <point x="183" y="29"/>
      <point x="176" y="102"/>
      <point x="176" y="217" type="curve" smooth="yes"/>
      <point x="176" y="234"/>
      <point x="177" y="264"/>
      <point x="177" y="270" type="curve"/>
      <point x="193" y="284"/>
      <point x="209" y="290"/>
      <point x="235" y="290" type="curve" smooth="yes"/>
      <point x="276" y="290"/>
      <point x="293" y="268"/>
      <point x="293" y="215" type="curve" smooth="yes"/>
      <point x="293" y="139"/>
      <point x="290" y="56"/>
      <point x="286" y="0" type="curve"/>
      <point x="309" y="-4"/>
      <point x="336" y="-6"/>
      <point x="357" y="-6" type="curve" smooth="yes"/>
      <point x="386" y="-6"/>
      <point x="426" y="-4"/>
      <point x="445" y="0" type="curve"/>
      <point x="432" y="29"/>
      <point x="425" y="82"/>
      <point x="425" y="150" type="curve" smooth="yes"/>
      <point x="425" y="181"/>
      <point x="429" y="251"/>
      <point x="429" y="280" type="curve" smooth="yes"/>
      <point x="429" y="362"/>
      <point x="399" y="418"/>
      <point x="312" y="418" type="curve" smooth="yes"/>
      <point x="259" y="418"/>
      <point x="213" y="395"/>
      <point x="179" y="356" type="curve"/>
      <point x="181" y="431"/>
      <point x="186" y="503"/>
      <point x="192" y="547" type="curve"/>
      <point x="130" y="547"/>
      <point x="83" y="541"/>
      <point x="35" y="527" type="curve"/>
      <point x="41" y="468"/>
      <point x="45" y="367"/>
      <point x="45" y="255" type="curve" smooth="yes"/>
      <point x="45" y="171"/>
      <point x="42" y="73"/>
      <point x="38" y="0" type="curve"/>
      <point x="69" y="-4"/>
      <point x="95" y="-6"/>
      <point x="119" y="-6" type="curve" smooth="yes"/>
    </contour>
    <contour>
      <point x="122" y="470" type="move" name="center"/>
    </contour>
    <contour>
      <point x="240" y="0" type="move" name="bottom"/>
    </contour>
    <contour>
      <point x="240" y="407" type="move" name="top"/>
    </contour>
  </outline>
</glyph>
<glyph name="k" format="1">
  <advance width="470"/>
  <unicode hex="006B"/>
  <outline>
    <contour>
      <point x="151" y="-6"/>
      <point x="175" y="-4"/>
      <point x="197" y="0" type="curve"/>
      <point x="188" y="20"/>
      <point x="181" y="61"/>
      <point x="178" y="122" type="curve"/>
      <point x="219" y="168" type="line"/>
      <point x="271" y="88"/>
      <point x="311" y="25"/>
      <point x="327" y="-6" type="curve"/>
      <point x="391" y="-6"/>
      <point x="451" y="-1"/>
      <point x="491" y="15" type="curve"/>
      <point x="443" y="51"/>
      <point x="373" y="156"/>
      <point x="309" y="266" type="curve"/>
      <point x="361" y="320"/>
      <point x="413" y="374"/>
      <point x="459" y="418" type="curve"/>
      <point x="416" y="418"/>
      <point x="378" y="416"/>
      <point x="326" y="407" type="curve"/>
      <point x="326" y="383"/>
      <point x="299" y="348"/>
      <point x="176" y="217" type="curve"/>
      <point x="176" y="227" type="line" smooth="yes"/>
      <point x="176" y="338"/>
      <point x="183" y="477"/>
      <point x="192" y="547" type="curve"/>
      <point x="130" y="547"/>
      <point x="83" y="541"/>
      <point x="35" y="527" type="curve"/>
      <point x="41" y="468"/>
      <point x="45" y="367"/>
      <point x="45" y="255" type="curve" smooth="yes"/>
      <point x="45" y="171"/>
      <point x="42" y="73"/>
      <point x="38" y="0" type="curve"/>
      <point x="72" y="-4"/>
      <point x="102" y="-6"/>
      <point x="129" y="-6" type="curve" smooth="yes"/>
    </contour>
    <contour>
      <point x="243" y="407" type="move" name="top"/>
    </contour>
    <contour>
      <point x="243" y="0" type="move" name="bottom"/>
    </contour>
  </outline>
</glyph>
<glyph name="p" format="1">
  <advance width="520"/>
  <unicode hex="0070"/>
  <outline>
    <contour>
      <point x="119" y="-180"/>
      <point x="166" y="-174"/>
      <point x="214" y="-160" type="curve"/>
      <point x="205" y="-123"/>
      <point x="200" y="-71"/>
      <point x="197" y="-1" type="curve"/>
      <point x="216" y="-6"/>
      <point x="237" y="-9"/>
      <point x="260" y="-9" type="curve" smooth="yes"/>
      <point x="405" y="-9"/>
      <point x="490" y="73"/>
      <point x="490" y="212" type="curve" smooth="yes"/>
      <point x="490" y="344"/>
      <point x="430" y="413"/>
      <point x="328" y="413" type="curve" smooth="yes"/>
      <point x="277" y="413"/>
      <point x="231" y="394"/>
      <point x="197" y="362" type="curve"/>
      <point x="189" y="395"/>
      <point x="166" y="414"/>
      <point x="122" y="414" type="curve" smooth="yes"/>
      <point x="99" y="414"/>
      <point x="61" y="405"/>
      <point x="30" y="378" type="curve"/>
      <point x="61" y="344"/>
      <point x="69" y="321"/>
      <point x="69" y="213" type="curve" smooth="yes"/>
      <point x="69" y="49"/>
      <point x="64" y="-104"/>
      <point x="57" y="-180" type="curve"/>
    </contour>
    <contour>
      <point x="234" y="57"/>
      <point x="213" y="66"/>
      <point x="195" y="84" type="curve"/>
      <point x="195" y="112" type="line" smooth="yes"/>
      <point x="195" y="176"/>
      <point x="197" y="232"/>
      <point x="199" y="277" type="curve"/>
      <point x="222" y="290"/>
      <point x="251" y="299"/>
      <point x="278" y="299" type="curve"/>
      <point x="322" y="278"/>
      <point x="348" y="236"/>
      <point x="348" y="177" type="curve" smooth="yes"/>
      <point x="348" y="102"/>
      <point x="314" y="57"/>
      <point x="257" y="57" type="curve" smooth="yes"/>
    </contour>
    <contour>
      <point x="263" y="407" type="move" name="top"/>
    </contour>
    <contour>
      <point x="263" y="0" type="move" name="bottom"/>
    </contour>
  </outline>
</glyph>
<glyph name="q" format="1">
  <advance width="505"/>
  <unicode hex="0071"/>
  <outline>
    <contour>
      <point x="363" y="-180"/>
      <point x="410" y="-176"/>
      <point x="458" y="-165" type="curve"/>
      <point x="451" y="-108"/>
      <point x="446" y="47"/>
      <point x="446" y="213" type="curve" smooth="yes"/>
      <point x="446" y="321"/>
      <point x="454" y="344"/>
      <point x="485" y="378" type="curve"/>
      <point x="454" y="405"/>
      <point x="416" y="414"/>
      <point x="393" y="414" type="curve" smooth="yes"/>
      <point x="358" y="414"/>
      <point x="336" y="402"/>
      <point x="325" y="380" type="curve"/>
      <point x="289" y="405"/>
      <point x="249" y="418"/>
      <point x="205" y="418" type="curve" smooth="yes"/>
      <point x="90" y="418"/>
      <point x="30" y="342"/>
      <point x="30" y="194" type="curve" smooth="yes"/>
      <point x="30" y="59"/>
      <point x="88" y="-12"/>
      <point x="200" y="-12" type="curve" smooth="yes"/>
      <point x="242" y="-12"/>
      <point x="284" y="6"/>
      <point x="319" y="36" type="curve"/>
      <point x="317" y="-63"/>
      <point x="311" y="-132"/>
      <point x="301" y="-180" type="curve"/>
    </contour>
    <contour>
      <point x="194" y="70"/>
      <point x="167" y="116"/>
      <point x="167" y="178" type="curve" smooth="yes"/>
      <point x="167" y="261"/>
      <point x="197" y="300"/>
      <point x="258" y="300" type="curve" smooth="yes"/>
      <point x="278" y="300"/>
      <point x="298" y="295"/>
      <point x="316" y="287" type="curve"/>
      <point x="317" y="240"/>
      <point x="320" y="181"/>
      <point x="320" y="112" type="curve" smooth="yes"/>
      <point x="320" y="102" type="line"/>
      <point x="294" y="79"/>
      <point x="264" y="63"/>
      <point x="237" y="60" type="curve"/>
    </contour>
    <contour>
      <point x="262" y="407" type="move" name="top"/>
    </contour>
    <contour>
      <point x="262" y="0" type="move" name="bottom"/>
    </contour>
  </outline>
</glyph>
<glyph name="s" format="1">
  <advance width="418"/>
  <unicode hex="0073"/>
  <outline>
    <contour>
      <point x="323" y="-11"/>
      <point x="393" y="37"/>
      <point x="393" y="119" type="curve" smooth="yes"/>
      <point x="393" y="254"/>
      <point x="180" y="259"/>
      <point x="180" y="306" type="curve" smooth="yes"/>
      <point x="180" y="316"/>
      <point x="191" y="326"/>
      <point x="205" y="329" type="curve"/>
      <point x="241" y="329"/>
      <point x="295" y="305"/>
      <point x="346" y="265" type="curve"/>
      <point x="361" y="289"/>
      <point x="379" y="359"/>
      <point x="379" y="394" type="curve"/>
      <point x="339" y="408"/>
      <point x="275" y="418"/>
      <point x="219" y="418" type="curve" smooth="yes"/>
      <point x="108" y="418"/>
      <point x="36" y="369"/>
      <point x="36" y="293" type="curve" smooth="yes"/>
      <point x="36" y="140"/>
      <point x="251" y="151"/>
      <point x="251" y="98" type="curve" smooth="yes"/>
      <point x="251" y="78"/>
      <point x="228" y="68"/>
      <point x="184" y="68" type="curve" smooth="yes"/>
      <point x="124" y="68"/>
      <point x="75" y="89"/>
      <point x="49" y="121" type="curve"/>
      <point x="35" y="86"/>
      <point x="30" y="60"/>
      <point x="30" y="25" type="curve"/>
      <point x="72" y="1"/>
      <point x="132" y="-11"/>
      <point x="202" y="-11" type="curve" smooth="yes"/>
    </contour>
    <contour>
      <point x="211" y="407" type="move" name="top"/>
    </contour>
    <contour>
      <point x="201" y="0" type="move" name="bottom"/>
    </contour>
  </outline>
</glyph>
<glyph name="w" format="1">
  <advance width="718"/>
  <unicode hex="0077"/>
  <outline>
    <contour>
      <point x="314" y="24" type="line"/>
      <point x="328" y="76"/>
      <point x="346" y="139"/>
      <point x="365" y="203" type="curve"/>
      <point x="378" y="161"/>
      <point x="392" y="118"/>
      <point x="408" y="73" type="curve" smooth="yes"/>
      <point x="430" y="10"/>
      <point x="461" y="-9"/>
      <point x="494" y="-9" type="curve"/>
      <point x="588" y="24" type="line"/>
      <point x="619" y="138"/>
      <point x="668" y="303"/>
      <point x="713" y="413" type="curve"/>
      <point x="677" y="413"/>
      <point x="638" y="411"/>
      <point x="595" y="402" type="curve"/>
      <point x="609" y="370"/>
      <point x="597" y="320"/>
      <point x="534" y="114" type="curve"/>
      <point x="478" y="272"/>
      <point x="450" y="356"/>
      <point x="439" y="413" type="curve"/>
      <point x="380" y="413"/>
      <point x="323" y="408"/>
      <point x="279" y="392" type="curve"/>
      <point x="294" y="377"/>
      <point x="312" y="346"/>
      <point x="327" y="311" type="curve"/>
      <point x="316" y="267"/>
      <point x="297" y="202"/>
      <point x="266" y="100" type="curve"/>
      <point x="239" y="167"/>
      <point x="177" y="351"/>
      <point x="165" y="413" type="curve"/>
      <point x="106" y="413"/>
      <point x="49" y="408"/>
      <point x="5" y="392" type="curve"/>
      <point x="26" y="372"/>
      <point x="51" y="320"/>
      <point x="68" y="272" type="curve" smooth="yes"/>
      <point x="90" y="208"/>
      <point x="109" y="144"/>
      <point x="134" y="73" type="curve" smooth="yes"/>
      <point x="156" y="10"/>
      <point x="187" y="-9"/>
      <point x="220" y="-9" type="curve"/>
    </contour>
    <contour>
      <point x="359" y="407" type="move" name="top"/>
    </contour>
    <contour>
      <point x="359" y="0" type="move" name="bottom"/>
    </contour>
  </outline>
</glyph>
<glyph name="y" format="1">
  <advance width="491"/>
  <unicode hex="0079"/>
  <outline>
    <contour>
      <point x="346" y="-180"/>
      <point x="443" y="-126"/>
      <point x="443" y="0" type="curve" smooth="yes"/>
      <point x="443" y="42"/>
      <point x="439" y="96"/>
      <point x="439" y="167" type="curve" smooth="yes"/>
      <point x="439" y="279"/>
      <point x="441" y="359"/>
      <point x="446" y="417" type="curve"/>
      <point x="384" y="417"/>
      <point x="337" y="411"/>
      <point x="289" y="397" type="curve"/>
      <point x="301" y="372"/>
      <point x="308" y="320"/>
      <point x="308" y="257" type="curve" smooth="yes"/>
      <point x="308" y="238"/>
      <point x="309" y="211"/>
      <point x="310" y="155" type="curve"/>
      <point x="293" y="138"/>
      <point x="275" y="131"/>
      <point x="247" y="131" type="curve" smooth="yes"/>
      <point x="206" y="131"/>
      <point x="189" y="153"/>
      <point x="189" y="206" type="curve" smooth="yes"/>
      <point x="189" y="280"/>
      <point x="192" y="362"/>
      <point x="196" y="417" type="curve"/>
      <point x="150" y="417"/>
      <point x="63" y="407"/>
      <point x="37" y="396" type="curve"/>
      <point x="50" y="371"/>
      <point x="57" y="327"/>
      <point x="57" y="271" type="curve" smooth="yes"/>
      <point x="57" y="240"/>
      <point x="53" y="170"/>
      <point x="53" y="141" type="curve" smooth="yes"/>
      <point x="53" y="87"/>
      <point x="66" y="44"/>
      <point x="100" y="21" type="curve"/>
      <point x="53" y="-25"/>
      <point x="25" y="-89"/>
      <point x="25" y="-127" type="curve"/>
      <point x="65" y="-160"/>
      <point x="135" y="-180"/>
      <point x="217" y="-180" type="curve" smooth="yes"/>
    </contour>
    <contour>
      <point x="187" y="-103"/>
      <point x="155" y="-91"/>
      <point x="131" y="-69" type="curve"/>
      <point x="137" y="-45"/>
      <point x="147" y="-20"/>
      <point x="161" y="3" type="curve"/>
      <point x="224" y="3"/>
      <point x="273" y="26"/>
      <point x="311" y="74" type="curve"/>
      <point x="311" y="11" type="line" smooth="yes"/>
      <point x="311" y="-60"/>
      <point x="281" y="-103"/>
      <point x="219" y="-103" type="curve" smooth="yes"/>
    </contour>
    <contour>
      <point x="239" y="407" type="move" name="top"/>
    </contour>
    <contour>
      <point x="239" y="0" type="move" name="bottom"/>
    </contour>
  </outline>
</glyph>
<glyph name="z" format="1">
  <advance width="433"/>
  <unicode hex="007A"/>
  <outline>
    <contour>
      <point x="393" y="21"/>
      <point x="401" y="95"/>
      <point x="401" y="140" type="curve"/>
      <point x="364" y="123"/>
      <point x="304" y="114"/>
      <point x="250" y="114" type="curve" smooth="yes"/>
      <point x="237" y="114"/>
      <point x="222" y="115"/>
      <point x="209" y="116" type="curve"/>
      <point x="277" y="195"/>
      <point x="368" y="287"/>
      <point x="382" y="311" type="curve"/>
      <point x="389" y="322"/>
      <point x="392" y="336"/>
      <point x="392" y="354" type="curve" smooth="yes"/>
      <point x="392" y="373"/>
      <point x="385" y="404"/>
      <point x="362" y="429" type="curve"/>
      <point x="329" y="405"/>
      <point x="309" y="399"/>
      <point x="210" y="399" type="curve" smooth="yes"/>
      <point x="153" y="399"/>
      <point x="75" y="403"/>
      <point x="31" y="410" type="curve"/>
      <point x="31" y="365"/>
      <point x="43" y="304"/>
      <point x="60" y="262" type="curve"/>
      <point x="82" y="274"/>
      <point x="113" y="280"/>
      <point x="167" y="280" type="curve" smooth="yes"/>
      <point x="209" y="280"/>
      <point x="246" y="278"/>
      <point x="275" y="277" type="curve"/>
      <point x="177" y="171"/>
      <point x="89" y="82"/>
      <point x="35" y="35" type="curve"/>
      <point x="35" y="-3" type="line"/>
      <point x="114" y="2"/>
      <point x="333" y="2"/>
      <point x="382" y="-8" type="curve"/>
    </contour>
    <contour>
      <point x="215" y="407" type="move" name="top"/>
    </contour>
    <contour>
      <point x="215" y="0" type="move" name="bottom"/>
    </contour>
  </outline>
</glyph>
<glyph name="braceleft" format="1">
  <advance width="370"/>
  <unicode hex="007B"/>
  <outline>
    <contour>
      <point x="348" y="-104"/>
      <point x="350" y="-90"/>
      <point x="350" y="-77" type="curve" smooth="yes"/>
      <point x="350" y="-52"/>
      <point x="348" y="-30"/>
      <point x="345" y="-5" type="curve"/>
      <point x="303" y="-11"/>
      <point x="268" y="-14"/>
      <point x="239" y="-14" type="curve"/>
      <point x="224" y="-7"/>
      <point x="211" y="30"/>
      <point x="211" y="79" type="curve" smooth="yes"/>
      <point x="211" y="104"/>
      <point x="212" y="130"/>
      <point x="212" y="154" type="curve" smooth="yes"/>
      <point x="212" y="208"/>
      <point x="205" y="254"/>
      <point x="159" y="262" type="curve"/>
      <point x="159" y="266" type="line"/>
      <point x="205" y="274"/>
      <point x="212" y="320"/>
      <point x="212" y="374" type="curve" smooth="yes"/>
      <point x="212" y="398"/>
      <point x="211" y="424"/>
      <point x="211" y="449" type="curve" smooth="yes"/>
      <point x="211" y="498"/>
      <point x="224" y="535"/>
      <point x="239" y="542" type="curve"/>
      <point x="268" y="542"/>
      <point x="303" y="539"/>
      <point x="345" y="533" type="curve"/>
      <point x="348" y="558"/>
      <point x="350" y="580"/>
      <point x="350" y="605" type="curve" smooth="yes"/>
      <point x="350" y="618"/>
      <point x="348" y="632"/>
      <point x="345" y="647" type="curve"/>
      <point x="195" y="647"/>
      <point x="67" y="614"/>
      <point x="67" y="486" type="curve" smooth="yes"/>
      <point x="67" y="433"/>
      <point x="96" y="371"/>
      <point x="96" y="332" type="curve" smooth="yes"/>
      <point x="96" y="302"/>
      <point x="77" y="297"/>
      <point x="30" y="296" type="curve"/>
      <point x="30" y="232" type="line"/>
      <point x="77" y="231"/>
      <point x="96" y="226"/>
      <point x="96" y="196" type="curve" smooth="yes"/>
      <point x="96" y="158"/>
      <point x="67" y="95"/>
      <point x="67" y="42" type="curve" smooth="yes"/>
      <point x="67" y="-86"/>
      <point x="195" y="-119"/>
      <point x="345" y="-119" type="curve"/>
    </contour>
  </outline>
</glyph>
<glyph name="bar" format="1">
  <advance width="354"/>
  <unicode hex="007C"/>
  <outline>
    <contour>
      <point x="215" y="-111"/>
      <point x="243" y="-109"/>
      <point x="269" y="-103" type="curve"/>
      <point x="258" y="-36"/>
      <point x="253" y="49"/>
      <point x="253" y="285" type="curve" smooth="yes"/>
      <point x="253" y="370"/>
      <point x="258" y="557"/>
      <point x="264" y="630" type="curve"/>
      <point x="232" y="636"/>
      <point x="205" y="639"/>
      <point x="181" y="639" type="curve" smooth="yes"/>
      <point x="147" y="639"/>
      <point x="113" y="636"/>
      <point x="85" y="630" type="curve"/>
      <point x="95" y="574"/>
      <point x="101" y="482"/>
      <point x="101" y="285" type="curve" smooth="yes"/>
      <point x="101" y="197"/>
      <point x="95" y="-10"/>
      <point x="90" y="-103" type="curve"/>
      <point x="127" y="-109"/>
      <point x="160" y="-111"/>
      <point x="189" y="-111" type="curve" smooth="yes"/>
    </contour>
  </outline>
</glyph>
<glyph name="cent" format="1">
  <advance width="399"/>
  <unicode hex="00A2"/>
  <outline>
    <contour>
      <point x="255" y="442" type="line"/>
      <point x="256" y="495"/>
      <point x="258" y="541"/>
      <point x="260" y="575" type="curve"/>
      <point x="242" y="580"/>
      <point x="227" y="583"/>
      <point x="212" y="583" type="curve" smooth="yes"/>
      <point x="197" y="583"/>
      <point x="180" y="580"/>
      <point x="165" y="575" type="curve"/>
      <point x="170" y="552"/>
      <point x="173" y="507"/>
      <point x="176" y="442" type="curve"/>
    </contour>
    <contour>
      <point x="233" y="-56"/>
      <point x="250" y="-53"/>
      <point x="265" y="-48" type="curve"/>
      <point x="259" y="-26"/>
      <point x="256" y="17"/>
      <point x="254" y="78" type="curve"/>
      <point x="173" y="78" type="line"/>
      <point x="172" y="28"/>
      <point x="170" y="-16"/>
      <point x="168" y="-48" type="curve"/>
      <point x="187" y="-53"/>
      <point x="203" y="-56"/>
      <point x="218" y="-56" type="curve" smooth="yes"/>
    </contour>
    <component base="c" yOffset="61"/>
  </outline>
</glyph>
<glyph name="guillemotleft" format="1">
  <advance width="498"/>
  <unicode hex="00AB"/>
  <outline>
    <contour>
      <point x="425" y="53"/>
      <point x="447" y="77"/>
      <point x="468" y="113" type="curve"/>
      <point x="359" y="222" type="line"/>
      <point x="468" y="333" type="line"/>
      <point x="447" y="369"/>
      <point x="425" y="393"/>
      <point x="383" y="425" type="curve"/>
      <point x="339" y="360"/>
      <point x="296" y="309"/>
      <point x="240" y="245" type="curve"/>
      <point x="240" y="201" type="line"/>
      <point x="296" y="137"/>
      <point x="339" y="86"/>
      <point x="383" y="21" type="curve"/>
    </contour>
    <contour>
      <point x="205" y="53"/>
      <point x="227" y="77"/>
      <point x="248" y="113" type="curve"/>
      <point x="139" y="222" type="line"/>
      <point x="248" y="333" type="line"/>
      <point x="227" y="369"/>
      <point x="205" y="393"/>
      <point x="163" y="425" type="curve"/>
      <point x="119" y="360"/>
      <point x="76" y="309"/>
      <point x="20" y="245" type="curve"/>
      <point x="20" y="201" type="line"/>
      <point x="76" y="137"/>
      <point x="119" y="86"/>
      <point x="163" y="21" type="curve"/>
    </contour>
  </outline>
</glyph>
<glyph name="registered" format="1">
  <advance width="532"/>
  <unicode hex="00AE"/>
  <outline>
    <contour>
      <point x="396" y="218"/>
      <point x="502" y="324"/>
      <point x="502" y="454" type="curve" smooth="yes"/>
      <point x="502" y="584"/>
      <point x="396" y="690"/>
      <point x="266" y="690" type="curve" smooth="yes"/>
      <point x="136" y="690"/>
      <point x="30" y="584"/>
      <point x="30" y="454" type="curve" smooth="yes"/>
      <point x="30" y="324"/>
      <point x="136" y="218"/>
      <point x="266" y="218" type="curve" smooth="yes"/>
    </contour>
    <contour>
      <point x="158" y="257"/>
      <point x="69" y="346"/>
      <point x="69" y="454" type="curve" smooth="yes"/>
      <point x="69" y="562"/>
      <point x="158" y="651"/>
      <point x="266" y="651" type="curve" smooth="yes"/>
      <point x="374" y="651"/>
      <point x="463" y="562"/>
      <point x="463" y="454" type="curve" smooth="yes"/>
      <point x="463" y="346"/>
      <point x="374" y="257"/>
      <point x="266" y="257" type="curve" smooth="yes"/>
    </contour>
    <contour>
      <point x="208" y="323"/>
      <point x="221" y="324"/>
      <point x="233" y="326" type="curve"/>
      <point x="228" y="339"/>
      <point x="225" y="370"/>
      <point x="224" y="418" type="curve"/>
      <point x="239" y="416"/>
      <point x="248" y="416"/>
      <point x="262" y="416" type="curve"/>
      <point x="286" y="374"/>
      <point x="304" y="339"/>
      <point x="311" y="323" type="curve"/>
      <point x="343" y="323"/>
      <point x="369" y="325"/>
      <point x="395" y="333" type="curve"/>
      <point x="375" y="348"/>
      <point x="352" y="386"/>
      <point x="329" y="430" type="curve"/>
      <point x="361" y="446"/>
      <point x="381" y="472"/>
      <point x="381" y="504" type="curve" smooth="yes"/>
      <point x="381" y="560"/>
      <point x="339" y="592"/>
      <point x="262" y="592" type="curve" smooth="yes"/>
      <point x="220" y="592"/>
      <point x="174" y="586"/>
      <point x="150" y="578" type="curve"/>
      <point x="156" y="564"/>
      <point x="159" y="527"/>
      <point x="159" y="471" type="curve" smooth="yes"/>
      <point x="159" y="421"/>
      <point x="156" y="358"/>
      <point x="153" y="326" type="curve"/>
      <point x="168" y="324"/>
      <point x="183" y="323"/>
      <point x="196" y="323" type="curve" smooth="yes"/>
    </contour>
    <contour>
      <point x="264" y="452"/>
      <point x="244" y="456"/>
      <point x="224" y="461" type="curve"/>
      <point x="227" y="547" type="line"/>
      <point x="235" y="548"/>
      <point x="242" y="549"/>
      <point x="250" y="549" type="curve" smooth="yes"/>
      <point x="288" y="549"/>
      <point x="311" y="534"/>
      <point x="311" y="500" type="curve" smooth="yes"/>
      <point x="311" y="477"/>
      <point x="295" y="462"/>
      <point x="276" y="452" type="curve"/>
    </contour>
  </outline>
</glyph>
<glyph name="degree" format="1">
  <advance width="360"/>
  <unicode hex="00B0"/>
  <outline>
    <contour>
      <point x="264" y="345"/>
      <point x="330" y="404"/>
      <point x="330" y="489" type="curve" smooth="yes"/>
      <point x="330" y="566"/>
      <point x="275" y="617"/>
      <point x="195" y="617" type="curve" smooth="yes"/>
      <point x="98" y="617"/>
      <point x="30" y="558"/>
      <point x="30" y="475" type="curve" smooth="yes"/>
      <point x="30" y="398"/>
      <point x="86" y="345"/>
      <point x="169" y="345" type="curve" smooth="yes"/>
    </contour>
    <contour>
      <point x="144" y="414"/>
      <point x="120" y="445"/>
      <point x="120" y="492" type="curve" smooth="yes"/>
      <point x="120" y="536"/>
      <point x="147" y="569"/>
      <point x="185" y="569" type="curve"/>
      <point x="218" y="562"/>
      <point x="238" y="533"/>
      <point x="238" y="489" type="curve" smooth="yes"/>
      <point x="238" y="443"/>
      <point x="215" y="414"/>
      <point x="178" y="414" type="curve" smooth="yes"/>
    </contour>
  </outline>
</glyph>
<glyph name="paragraph" format="1">
  <advance width="452"/>
  <unicode hex="00B6"/>
  <outline>
    <contour>
      <point x="337" y="-6"/>
      <point x="369" y="-4"/>
      <point x="405" y="0" type="curve"/>
      <point x="399" y="57"/>
      <point x="394" y="169"/>
      <point x="394" y="260" type="curve" smooth="yes"/>
      <point x="394" y="389"/>
      <point x="398" y="473"/>
      <point x="407" y="505" type="curve"/>
      <point x="368" y="518"/>
      <point x="296" y="531"/>
      <point x="228" y="531" type="curve" smooth="yes"/>
      <point x="96" y="531"/>
      <point x="20" y="482"/>
      <point x="20" y="366" type="curve" smooth="yes"/>
      <point x="20" y="282"/>
      <point x="66" y="220"/>
      <point x="123" y="186" type="curve"/>
      <point x="154" y="186"/>
      <point x="202" y="199"/>
      <point x="252" y="219" type="curve"/>
      <point x="250" y="107"/>
      <point x="245" y="33"/>
      <point x="236" y="0" type="curve"/>
      <point x="260" y="-4"/>
      <point x="285" y="-6"/>
      <point x="309" y="-6" type="curve" smooth="yes"/>
    </contour>
  </outline>
</glyph>
<glyph name="ordmasculine" format="1">
  <advance width="394"/>
  <unicode hex="00BA"/>
  <outline>
    <contour>
      <point x="283" y="293"/>
      <point x="353" y="353"/>
      <point x="353" y="440" type="curve" smooth="yes"/>
      <point x="353" y="519"/>
      <point x="295" y="572"/>
      <point x="207" y="572" type="curve" smooth="yes"/>
      <point x="109" y="572"/>
      <point x="41" y="511"/>
      <point x="41" y="425" type="curve" smooth="yes"/>
      <point x="41" y="346"/>
      <point x="98" y="293"/>
      <point x="183" y="293" type="curve" smooth="yes"/>
    </contour>
    <contour>
      <point x="161" y="340"/>
      <point x="139" y="369"/>
      <point x="139" y="410" type="curve" smooth="yes"/>
      <point x="139" y="456"/>
      <point x="164" y="484"/>
      <point x="204" y="484" type="curve"/>
      <point x="235" y="475"/>
      <point x="256" y="447"/>
      <point x="256" y="410" type="curve" smooth="yes"/>
      <point x="256" y="366"/>
      <point x="234" y="340"/>
      <point x="195" y="340" type="curve" smooth="yes"/>
    </contour>
  </outline>
</glyph>
<glyph name="multiply" format="1">
  <advance width="533"/>
  <unicode hex="00D7"/>
  <outline>
    <contour>
      <point x="182" y="116"/>
      <point x="224" y="160"/>
      <point x="267" y="204" type="curve"/>
      <point x="309" y="160"/>
      <point x="351" y="116"/>
      <point x="392" y="70" type="curve"/>
      <point x="426" y="94"/>
      <point x="436" y="106"/>
      <point x="462" y="140" type="curve"/>
      <point x="416" y="181"/>
      <point x="372" y="223"/>
      <point x="328" y="266" type="curve"/>
      <point x="372" y="308"/>
      <point x="416" y="350"/>
      <point x="462" y="391" type="curve"/>
      <point x="438" y="425"/>
      <point x="426" y="435"/>
      <point x="392" y="461" type="curve"/>
      <point x="351" y="415"/>
      <point x="309" y="371"/>
      <point x="267" y="327" type="curve"/>
      <point x="224" y="371"/>
      <point x="182" y="415"/>
      <point x="141" y="461" type="curve"/>
      <point x="107" y="437"/>
      <point x="97" y="425"/>
      <point x="71" y="391" type="curve"/>
      <point x="117" y="350"/>
      <point x="161" y="308"/>
      <point x="205" y="266" type="curve"/>
      <point x="161" y="223"/>
      <point x="117" y="181"/>
      <point x="71" y="140" type="curve"/>
      <point x="95" y="106"/>
      <point x="107" y="96"/>
      <point x="141" y="70" type="curve"/>
    </contour>
  </outline>
</glyph>
<glyph name="eth" format="1">
  <advance width="513"/>
  <unicode hex="00F0"/>
  <outline>
    <contour>
      <point x="478" y="215" type="line"/>
      <point x="478" y="369"/>
      <point x="346" y="503"/>
      <point x="162" y="618" type="curve"/>
      <point x="125" y="573" type="line"/>
      <point x="307" y="425"/>
      <point x="361" y="293"/>
      <point x="361" y="177" type="curve"/>
    </contour>
    <component base="o"/>
    <component base="uni0337" xOffset="76" yOffset="309" xScale="0.85" yScale="0.85"/>
  </outline>
</glyph>
<glyph name="Eng" format="1">
  <advance width="545"/>
  <unicode hex="014A"/>
  <outline>
    <contour>
      <point x="445" y="-123"/>
      <point x="497" y="-63"/>
      <point x="497" y="63" type="curve" smooth="yes"/>
      <point x="497" y="237" type="line" smooth="yes"/>
      <point x="497" y="338"/>
      <point x="501" y="463"/>
      <point x="505" y="527" type="curve"/>
      <point x="483" y="531"/>
      <point x="464" y="533"/>
      <point x="448" y="533" type="curve" smooth="yes"/>
      <point x="433" y="533"/>
      <point x="418" y="531"/>
      <point x="403" y="527" type="curve"/>
      <point x="411" y="497"/>
      <point x="414" y="420"/>
      <point x="414" y="300" type="curve" smooth="yes"/>
      <point x="414" y="253"/>
      <point x="413" y="201"/>
      <point x="412" y="152" type="curve"/>
      <point x="337" y="278"/>
      <point x="243" y="444"/>
      <point x="202" y="527" type="curve"/>
      <point x="167" y="531"/>
      <point x="139" y="533"/>
      <point x="115" y="533" type="curve" smooth="yes"/>
      <point x="89" y="533"/>
      <point x="57" y="531"/>
      <point x="40" y="527" type="curve"/>
      <point x="47" y="496"/>
      <point x="51" y="415"/>
      <point x="51" y="290" type="curve" smooth="yes"/>
      <point x="51" y="189"/>
      <point x="48" y="64"/>
      <point x="43" y="0" type="curve"/>
      <point x="65" y="-4"/>
      <point x="84" y="-6"/>
      <point x="100" y="-6" type="curve" smooth="yes"/>
      <point x="115" y="-6"/>
      <point x="130" y="-4"/>
      <point x="145" y="0" type="curve"/>
      <point x="138" y="30"/>
      <point x="134" y="107"/>
      <point x="134" y="227" type="curve" smooth="yes"/>
      <point x="134" y="274"/>
      <point x="135" y="326"/>
      <point x="136" y="375" type="curve"/>
      <point x="211" y="248"/>
      <point x="305" y="83"/>
      <point x="346" y="0" type="curve" smooth="yes"/>
      <point x="369" y="-44"/>
      <point x="346" y="-107"/>
      <point x="266" y="-151" type="curve"/>
      <point x="287" y="-189" type="line"/>
    </contour>
    <contour>
      <point x="274" y="527" type="move" name="top"/>
    </contour>
    <contour>
      <point x="274" y="0" type="move" name="bottom"/>
    </contour>
  </outline>
</glyph>
<glyph name="OE" format="1">
  <advance width="806"/>
  <unicode hex="0152"/>
  <outline>
    <contour>
      <point x="416" y="-6"/>
      <point x="483" y="4"/>
      <point x="564" y="4" type="curve" smooth="yes"/>
      <point x="636" y="4"/>
      <point x="710" y="2"/>
      <point x="760" y="-3" type="curve"/>
      <point x="773" y="19"/>
      <point x="781" y="88"/>
      <point x="781" y="133" type="curve"/>
      <point x="739" y="116"/>
      <point x="670" y="106"/>
      <point x="609" y="106" type="curve" smooth="yes"/>
      <point x="583" y="106"/>
      <point x="556" y="108"/>
      <point x="532" y="112" type="curve"/>
      <point x="530" y="145"/>
      <point x="529" y="185"/>
      <point x="529" y="224" type="curve"/>
      <point x="586" y="224"/>
      <point x="630" y="222"/>
      <point x="725" y="216" type="curve"/>
      <point x="727" y="233"/>
      <point x="729" y="251"/>
      <point x="729" y="266" type="curve" smooth="yes"/>
      <point x="729" y="282"/>
      <point x="727" y="299"/>
      <point x="725" y="315" type="curve"/>
      <point x="685" y="308"/>
      <point x="658" y="304"/>
      <point x="583" y="304" type="curve" smooth="yes"/>
      <point x="566" y="304"/>
      <point x="548" y="304"/>
      <point x="530" y="305" type="curve"/>
      <point x="531" y="341"/>
      <point x="532" y="379"/>
      <point x="534" y="413" type="curve"/>
      <point x="556" y="416"/>
      <point x="581" y="418"/>
      <point x="604" y="418" type="curve" smooth="yes"/>
      <point x="658" y="418"/>
      <point x="719" y="409"/>
      <point x="756" y="391" type="curve"/>
      <point x="769" y="411"/>
      <point x="777" y="482"/>
      <point x="777" y="527" type="curve"/>
      <point x="722" y="522"/>
      <point x="639" y="520"/>
      <point x="559" y="520" type="curve" smooth="yes"/>
      <point x="462" y="520"/>
      <point x="412" y="532"/>
      <point x="322" y="532" type="curve" smooth="yes"/>
      <point x="134" y="532"/>
      <point x="30" y="437"/>
      <point x="30" y="266" type="curve" smooth="yes"/>
      <point x="30" y="105"/>
      <point x="157" y="-6"/>
      <point x="342" y="-6" type="curve" smooth="yes"/>
    </contour>
    <contour>
      <point x="227" y="81"/>
      <point x="172" y="165"/>
      <point x="172" y="248" type="curve" smooth="yes"/>
      <point x="172" y="386"/>
      <point x="235" y="444"/>
      <point x="343" y="444" type="curve" smooth="yes"/>
      <point x="361" y="444"/>
      <point x="378" y="441"/>
      <point x="394" y="436" type="curve"/>
      <point x="396" y="400"/>
      <point x="397" y="354"/>
      <point x="397" y="300" type="curve" smooth="yes"/>
      <point x="397" y="232"/>
      <point x="395" y="152"/>
      <point x="392" y="86" type="curve"/>
      <point x="353" y="75"/>
      <point x="318" y="68"/>
      <point x="295" y="68" type="curve"/>
    </contour>
    <contour>
      <point x="403" y="527" type="move" name="top"/>
    </contour>
    <contour>
      <point x="403" y="0" type="move" name="bottom"/>
    </contour>
  </outline>
</glyph>
<glyph name="florin" format="1">
  <advance width="326"/>
  <unicode hex="0192"/>
  <outline>
    <contour>
      <point x="218" y="-38"/>
      <point x="213" y="120"/>
      <point x="213" y="284" type="curve" smooth="yes"/>
      <point x="213" y="438"/>
      <point x="219" y="474"/>
      <point x="248" y="496" type="curve"/>
      <point x="278" y="490"/>
      <point x="305" y="478"/>
      <point x="362" y="445" type="curve"/>
      <point x="375" y="467"/>
      <point x="391" y="536"/>
      <point x="391" y="571" type="curve"/>
      <point x="358" y="580"/>
      <point x="319" y="585"/>
      <point x="275" y="585" type="curve" smooth="yes"/>
      <point x="152" y="585"/>
      <point x="79" y="491"/>
      <point x="79" y="357" type="curve" smooth="yes"/>
      <point x="79" y="268"/>
      <point x="84" y="183"/>
      <point x="84" y="104" type="curve" smooth="yes"/>
      <point x="84" y="31"/>
      <point x="81" y="-36"/>
      <point x="68" y="-94" type="curve"/>
      <point x="116" y="-108"/>
      <point x="163" y="-114"/>
      <point x="225" y="-114" type="curve"/>
    </contour>
    <component base="uni0335" xOffset="-28" yOffset="70" xScale="0.943"/>
  </outline>
</glyph>
<glyph name="gravecomb" format="1">
  <advance width="234"/>
  <unicode hex="0300"/>
  <outline>
    <contour>
      <point x="234" y="492" type="line"/>
      <point x="181" y="516"/>
      <point x="135" y="577"/>
      <point x="131" y="628" type="curve"/>
      <point x="70" y="628"/>
      <point x="23" y="607"/>
      <point x="0" y="569" type="curve"/>
      <point x="45" y="511"/>
      <point x="142" y="467"/>
      <point x="223" y="457" type="curve"/>
    </contour>
    <contour>
      <point x="117" y="608" type="move" name="top"/>
    </contour>
    <contour>
      <point x="127" y="407" type="move" name="_top"/>
    </contour>
  </outline>
</glyph>
<glyph name="uni0302" format="1">
  <advance width="298"/>
  <unicode hex="0302"/>
  <outline>
    <contour>
      <point x="128" y="548" type="line"/>
      <point x="178" y="477" type="line"/>
      <point x="225" y="477"/>
      <point x="266" y="481"/>
      <point x="298" y="491" type="curve"/>
      <point x="282" y="506"/>
      <point x="231" y="578"/>
      <point x="209" y="616" type="curve"/>
      <point x="162" y="616"/>
      <point x="121" y="613"/>
      <point x="89" y="603" type="curve"/>
      <point x="65" y="568"/>
      <point x="29" y="518"/>
      <point x="0" y="485" type="curve"/>
      <point x="36" y="479"/>
      <point x="54" y="477"/>
      <point x="83" y="477" type="curve"/>
    </contour>
    <contour>
      <point x="149" y="616" type="move" name="top"/>
    </contour>
    <contour>
      <point x="149" y="407" type="move" name="_top"/>
    </contour>
  </outline>
</glyph>
<glyph name="uni0304" format="1">
  <advance width="293"/>
  <unicode hex="0304"/>
  <outline>
    <contour>
      <point x="35" y="497"/>
      <point x="92" y="504"/>
      <point x="142" y="504" type="curve" smooth="yes"/>
      <point x="185" y="504"/>
      <point x="227" y="503"/>
      <point x="275" y="500" type="curve"/>
      <point x="282" y="539"/>
      <point x="285" y="572"/>
      <point x="281" y="611" type="curve"/>
      <point x="258" y="603"/>
      <point x="201" y="596"/>
      <point x="151" y="596" type="curve" smooth="yes"/>
      <point x="108" y="596"/>
      <point x="66" y="597"/>
      <point x="18" y="600" type="curve"/>
      <point x="11" y="561"/>
      <point x="8" y="528"/>
      <point x="12" y="489" type="curve"/>
    </contour>
    <contour>
      <point x="146" y="616" type="move" name="top"/>
    </contour>
    <contour>
      <point x="146" y="407" type="move" name="_top"/>
    </contour>
  </outline>
</glyph>
<glyph name="uni030B" format="1">
  <advance width="414"/>
  <unicode hex="030B"/>
  <outline>
    <contour>
      <point x="285" y="467"/>
      <point x="369" y="511"/>
      <point x="414" y="569" type="curve"/>
      <point x="391" y="607"/>
      <point x="344" y="628"/>
      <point x="283" y="628" type="curve"/>
      <point x="279" y="577"/>
      <point x="243" y="516"/>
      <point x="200" y="492" type="curve"/>
      <point x="211" y="457" type="line"/>
    </contour>
    <contour>
      <point x="85" y="467"/>
      <point x="169" y="511"/>
      <point x="214" y="569" type="curve"/>
      <point x="191" y="607"/>
      <point x="144" y="628"/>
      <point x="83" y="628" type="curve"/>
      <point x="79" y="577"/>
      <point x="43" y="516"/>
      <point x="0" y="492" type="curve"/>
      <point x="11" y="457" type="line"/>
    </contour>
    <contour>
      <point x="207" y="628" type="move" name="top"/>
    </contour>
    <contour>
      <point x="177" y="407" type="move" name="_top"/>
    </contour>
  </outline>
</glyph>
<glyph name="uni0337" format="1">
  <advance width="355"/>
  <unicode hex="0337"/>
  <outline>
    <contour>
      <point x="107" y="179"/>
      <point x="130" y="195"/>
      <point x="197" y="230" type="curve" smooth="yes"/>
      <point x="241" y="252"/>
      <point x="298" y="277"/>
      <point x="328" y="287" type="curve"/>
      <point x="325" y="304"/>
      <point x="296" y="362"/>
      <point x="283" y="375" type="curve"/>
      <point x="249" y="350"/>
      <point x="226" y="334"/>
      <point x="159" y="299" type="curve" smooth="yes"/>
      <point x="115" y="277"/>
      <point x="58" y="252"/>
      <point x="28" y="242" type="curve"/>
      <point x="31" y="225"/>
      <point x="60" y="167"/>
      <point x="73" y="154" type="curve"/>
    </contour>
    <contour>
      <point x="178" y="264" type="move" name="_center"/>
    </contour>
  </outline>
</glyph>
<glyph name="uni0394" format="1">
  <advance width="552"/>
  <unicode hex="0394"/>
  <outline>
    <contour>
      <point x="95" y="3"/>
      <point x="185" y="5"/>
      <point x="276" y="5" type="curve" smooth="yes"/>
      <point x="367" y="5"/>
      <point x="458" y="3"/>
      <point x="549" y="0" type="curve"/>
      <point x="508" y="83"/>
      <point x="383" y="411"/>
      <point x="344" y="529" type="curve"/>
      <point x="323" y="532"/>
      <point x="301" y="534"/>
      <point x="278" y="534" type="curve" smooth="yes"/>
      <point x="256" y="534"/>
      <point x="233" y="532"/>
      <point x="208" y="529" type="curve"/>
      <point x="169" y="411"/>
      <point x="44" y="83"/>
      <point x="3" y="0" type="curve"/>
    </contour>
    <contour>
      <point x="207" y="94"/>
      <point x="162" y="95"/>
      <point x="131" y="97" type="curve"/>
      <point x="164" y="190"/>
      <point x="212" y="314"/>
      <point x="246" y="395" type="curve"/>
      <point x="278" y="321"/>
      <point x="328" y="191"/>
      <point x="362" y="95" type="curve"/>
      <point x="338" y="94"/>
      <point x="310" y="94"/>
      <point x="276" y="94" type="curve" smooth="yes"/>
    </contour>
  </outline>
</glyph>
<glyph name="endash" format="1">
  <advance width="546"/>
  <unicode hex="2013"/>
  <outline>
    <contour>
      <point x="99" y="128"/>
      <point x="193" y="137"/>
      <point x="281" y="137" type="curve" smooth="yes"/>
      <point x="355" y="137"/>
      <point x="429" y="136"/>
      <point x="511" y="132" type="curve"/>
      <point x="511" y="183"/>
      <point x="505" y="227"/>
      <point x="484" y="278" type="curve"/>
      <point x="446" y="268"/>
      <point x="352" y="259"/>
      <point x="265" y="259" type="curve" smooth="yes"/>
      <point x="190" y="259"/>
      <point x="117" y="260"/>
      <point x="35" y="264" type="curve"/>
      <point x="35" y="213"/>
      <point x="41" y="169"/>
      <point x="62" y="118" type="curve"/>
    </contour>
  </outline>
</glyph>
<glyph name="fraction" format="1">
  <advance width="84"/>
  <unicode hex="2044"/>
  <outline>
    <contour>
      <point x="-53" y="-75"/>
      <point x="-31" y="-71"/>
      <point x="-12" y="-66" type="curve"/>
      <point x="51" y="145"/>
      <point x="123" y="356"/>
      <point x="206" y="567" type="curve"/>
      <point x="188" y="572"/>
      <point x="172" y="576"/>
      <point x="157" y="576" type="curve" smooth="yes"/>
      <point x="137" y="576"/>
      <point x="115" y="572"/>
      <point x="96" y="567" type="curve"/>
      <point x="33" y="356"/>
      <point x="-39" y="145"/>
      <point x="-122" y="-66" type="curve"/>
      <point x="-104" y="-71"/>
      <point x="-88" y="-75"/>
      <point x="-73" y="-75" type="curve" smooth="yes"/>
    </contour>
  </outline>
</glyph>
<glyph name="Euro" format="1">
  <advance width="520"/>
  <unicode hex="20AC"/>
  <outline>
    <contour>
      <point x="355" y="-11"/>
      <point x="436" y="25"/>
      <point x="480" y="78" type="curve"/>
      <point x="462" y="147" type="line"/>
      <point x="429" y="120"/>
      <point x="369" y="102"/>
      <point x="317" y="102" type="curve" smooth="yes"/>
      <point x="231" y="102"/>
      <point x="191" y="157"/>
      <point x="191" y="269" type="curve" smooth="yes"/>
      <point x="191" y="351"/>
      <point x="232" y="431"/>
      <point x="282" y="449" type="curve"/>
      <point x="313" y="449"/>
      <point x="372" y="414"/>
      <point x="417" y="368" type="curve"/>
      <point x="441" y="389"/>
      <point x="467" y="462"/>
      <point x="467" y="509" type="curve"/>
      <point x="433" y="525"/>
      <point x="384" y="533"/>
      <point x="326" y="533" type="curve" smooth="yes"/>
      <point x="165" y="533"/>
      <point x="53" y="413"/>
      <point x="53" y="241" type="curve" smooth="yes"/>
      <point x="53" y="79"/>
      <point x="132" y="-11"/>
      <point x="278" y="-11" type="curve" smooth="yes"/>
    </contour>
    <component base="uni0335" xOffset="-24" yOffset="77" xScale="0.952" yScale="0.952"/>
    <component base="uni0335" xOffset="-27" yOffset="-53" xScale="0.952" yScale="0.952"/>
    <contour>
      <point x="287" y="527" type="move" name="top"/>
    </contour>
    <contour>
      <point x="269" y="0" type="move" name="bottom"/>
    </contour>
  </outline>
</glyph>
<glyph name="trademark" format="1">
  <advance width="687"/>
  <unicode hex="2122"/>
  <outline>
    <contour>
      <point x="330" y="323"/>
      <point x="339" y="324"/>
      <point x="348" y="326" type="curve"/>
      <point x="344" y="341"/>
      <point x="342" y="380"/>
      <point x="342" y="440" type="curve" smooth="yes"/>
      <point x="342" y="459"/>
      <point x="342" y="479"/>
      <point x="343" y="499" type="curve"/>
      <point x="375" y="437"/>
      <point x="412" y="362"/>
      <point x="428" y="326" type="curve"/>
      <point x="433" y="325"/>
      <point x="437" y="324"/>
      <point x="442" y="324" type="curve" smooth="yes"/>
      <point x="447" y="324"/>
      <point x="452" y="325"/>
      <point x="458" y="326" type="curve"/>
      <point x="476" y="365"/>
      <point x="518" y="452"/>
      <point x="552" y="517" type="curve"/>
      <point x="552" y="503"/>
      <point x="553" y="490"/>
      <point x="553" y="476" type="curve" smooth="yes"/>
      <point x="553" y="424"/>
      <point x="550" y="359"/>
      <point x="547" y="326" type="curve"/>
      <point x="561" y="324"/>
      <point x="574" y="323"/>
      <point x="586" y="323" type="curve" smooth="yes"/>
      <point x="599" y="323"/>
      <point x="613" y="324"/>
      <point x="627" y="326" type="curve"/>
      <point x="621" y="341"/>
      <point x="618" y="380"/>
      <point x="618" y="440" type="curve" smooth="yes"/>
      <point x="618" y="492"/>
      <point x="621" y="557"/>
      <point x="624" y="590" type="curve"/>
      <point x="608" y="592"/>
      <point x="594" y="593"/>
      <point x="581" y="593" type="curve" smooth="yes"/>
      <point x="568" y="593"/>
      <point x="554" y="592"/>
      <point x="544" y="590" type="curve"/>
      <point x="527" y="554"/>
      <point x="487" y="472"/>
      <point x="457" y="414" type="curve"/>
      <point x="428" y="469"/>
      <point x="387" y="554"/>
      <point x="371" y="590" type="curve"/>
      <point x="357" y="592"/>
      <point x="342" y="593"/>
      <point x="330" y="593" type="curve" smooth="yes"/>
      <point x="318" y="593"/>
      <point x="306" y="592"/>
      <point x="294" y="590" type="curve"/>
      <point x="299" y="557"/>
      <point x="300" y="520"/>
      <point x="300" y="472" type="curve" smooth="yes"/>
      <point x="300" y="421"/>
      <point x="299" y="358"/>
      <point x="296" y="326" type="curve"/>
      <point x="305" y="324"/>
      <point x="314" y="323"/>
      <point x="321" y="323" type="curve" smooth="yes"/>
    </contour>
    <contour>
      <point x="162" y="323"/>
      <point x="177" y="324"/>
      <point x="186" y="326" type="curve"/>
      <point x="180" y="341"/>
      <point x="177" y="377"/>
      <point x="177" y="440" type="curve" smooth="yes"/>
      <point x="177" y="469"/>
      <point x="178" y="505"/>
      <point x="180" y="535" type="curve"/>
      <point x="211" y="534"/>
      <point x="242" y="533"/>
      <point x="261" y="531" type="curve"/>
      <point x="263" y="540"/>
      <point x="264" y="552"/>
      <point x="264" y="562" type="curve" smooth="yes"/>
      <point x="264" y="571"/>
      <point x="263" y="580"/>
      <point x="261" y="591" type="curve"/>
      <point x="248" y="587"/>
      <point x="215" y="585"/>
      <point x="160" y="585" type="curve" smooth="yes"/>
      <point x="115" y="585"/>
      <point x="58" y="587"/>
      <point x="28" y="589" type="curve"/>
      <point x="26" y="580"/>
      <point x="25" y="572"/>
      <point x="25" y="563" type="curve" smooth="yes"/>
      <point x="25" y="553"/>
      <point x="26" y="542"/>
      <point x="28" y="529" type="curve"/>
      <point x="39" y="533"/>
      <point x="66" y="535"/>
      <point x="110" y="536" type="curve"/>
      <point x="111" y="520"/>
      <point x="112" y="500"/>
      <point x="112" y="476" type="curve" smooth="yes"/>
      <point x="112" y="427"/>
      <point x="109" y="361"/>
      <point x="106" y="326" type="curve"/>
      <point x="122" y="324"/>
      <point x="135" y="323"/>
      <point x="147" y="323" type="curve" smooth="yes"/>
    </contour>
  </outline>
</glyph>
<glyph name="partialdiff" format="1">
  <advance width="541"/>
  <unicode hex="2202"/>
  <outline>
    <contour>
      <point x="384" y="-11"/>
      <point x="496" y="125"/>
      <point x="496" y="311" type="curve" smooth="yes"/>
      <point x="496" y="479"/>
      <point x="392" y="573"/>
      <point x="199" y="573" type="curve"/>
      <point x="180" y="545"/>
      <point x="177" y="522"/>
      <point x="177" y="495" type="curve"/>
      <point x="298" y="495"/>
      <point x="359" y="435"/>
      <point x="361" y="314" type="curve"/>
      <point x="327" y="343"/>
      <point x="286" y="358"/>
      <point x="240" y="358" type="curve" smooth="yes"/>
      <point x="119" y="358"/>
      <point x="25" y="270"/>
      <point x="25" y="150" type="curve" smooth="yes"/>
      <point x="25" y="54"/>
      <point x="98" y="-11"/>
      <point x="213" y="-11" type="curve" smooth="yes"/>
    </contour>
    <contour>
      <point x="191" y="85"/>
      <point x="167" y="112"/>
      <point x="167" y="157" type="curve" smooth="yes"/>
      <point x="167" y="222"/>
      <point x="207" y="287"/>
      <point x="277" y="287" type="curve"/>
      <point x="307" y="277"/>
      <point x="333" y="261"/>
      <point x="353" y="239" type="curve"/>
      <point x="337" y="163"/>
      <point x="296" y="85"/>
      <point x="230" y="85" type="curve" smooth="yes"/>
    </contour>
  </outline>
</glyph>
<glyph name="product" format="1">
  <advance width="573"/>
  <unicode hex="220F"/>
  <outline>
    <contour>
      <point x="61" y="411"/>
      <point x="168" y="420"/>
      <point x="265" y="420" type="curve" smooth="yes"/>
      <point x="347" y="420"/>
      <point x="427" y="419"/>
      <point x="516" y="415" type="curve"/>
      <point x="541" y="456"/>
      <point x="558" y="510"/>
      <point x="558" y="561" type="curve"/>
      <point x="511" y="551"/>
      <point x="403" y="542"/>
      <point x="307" y="542" type="curve" smooth="yes"/>
      <point x="225" y="542"/>
      <point x="145" y="543"/>
      <point x="57" y="547" type="curve"/>
      <point x="32" y="506"/>
      <point x="15" y="452"/>
      <point x="15" y="401" type="curve"/>
    </contour>
    <component base="I" xOffset="32"/>
    <component base="I" xOffset="286"/>
  </outline>
</glyph>
<glyph name="infinity" format="1">
  <advance width="612"/>
  <unicode hex="221E"/>
  <outline>
    <contour>
      <point x="216" y="44"/>
      <point x="260" y="76"/>
      <point x="291" y="130" type="curve"/>
      <point x="318" y="82"/>
      <point x="356" y="44"/>
      <point x="421" y="44" type="curve" smooth="yes"/>
      <point x="512" y="44"/>
      <point x="577" y="142"/>
      <point x="577" y="282" type="curve" smooth="yes"/>
      <point x="577" y="399"/>
      <point x="525" y="478"/>
      <point x="446" y="478" type="curve" smooth="yes"/>
      <point x="398" y="478"/>
      <point x="356" y="448"/>
      <point x="324" y="397" type="curve"/>
      <point x="296" y="443"/>
      <point x="256" y="478"/>
      <point x="190" y="478" type="curve" smooth="yes"/>
      <point x="99" y="478"/>
      <point x="35" y="380"/>
      <point x="35" y="240" type="curve" smooth="yes"/>
      <point x="35" y="123"/>
      <point x="87" y="44"/>
      <point x="166" y="44" type="curve" smooth="yes"/>
    </contour>
    <contour>
      <point x="142" y="180"/>
      <point x="119" y="203"/>
      <point x="108" y="241" type="curve"/>
      <point x="108" y="300"/>
      <point x="132" y="342"/>
      <point x="171" y="342" type="curve" smooth="yes"/>
      <point x="215" y="342"/>
      <point x="233" y="280"/>
      <point x="256" y="213" type="curve"/>
      <point x="236" y="192"/>
      <point x="210" y="180"/>
      <point x="179" y="180" type="curve" smooth="yes"/>
    </contour>
    <contour>
      <point x="402" y="180"/>
      <point x="387" y="245"/>
      <point x="362" y="315" type="curve"/>
      <point x="381" y="332"/>
      <point x="405" y="342"/>
      <point x="433" y="342" type="curve" smooth="yes"/>
      <point x="470" y="342"/>
      <point x="493" y="319"/>
      <point x="504" y="281" type="curve"/>
      <point x="504" y="222"/>
      <point x="480" y="180"/>
      <point x="441" y="180" type="curve" smooth="yes"/>
    </contour>
  </outline>
</glyph>
<glyph name="integral" format="1">
  <advance width="355"/>
  <unicode hex="222B"/>
  <outline>
    <contour>
      <point x="174" y="-197"/>
      <point x="247" y="-103"/>
      <point x="247" y="31" type="curve" smooth="yes"/>
      <point x="247" y="120"/>
      <point x="242" y="205"/>
      <point x="242" y="284" type="curve" smooth="yes"/>
      <point x="242" y="438"/>
      <point x="248" y="474"/>
      <point x="277" y="496" type="curve"/>
      <point x="307" y="490"/>
      <point x="334" y="478"/>
      <point x="391" y="445" type="curve"/>
      <point x="404" y="467"/>
      <point x="420" y="536"/>
      <point x="420" y="571" type="curve"/>
      <point x="387" y="580"/>
      <point x="348" y="585"/>
      <point x="304" y="585" type="curve" smooth="yes"/>
      <point x="181" y="585"/>
      <point x="108" y="491"/>
      <point x="108" y="357" type="curve" smooth="yes"/>
      <point x="108" y="268"/>
      <point x="113" y="183"/>
      <point x="113" y="104" type="curve" smooth="yes"/>
      <point x="113" y="-50"/>
      <point x="107" y="-86"/>
      <point x="78" y="-108" type="curve"/>
      <point x="48" y="-102"/>
      <point x="21" y="-90"/>
      <point x="-36" y="-57" type="curve"/>
      <point x="-49" y="-79"/>
      <point x="-65" y="-148"/>
      <point x="-65" y="-183" type="curve"/>
      <point x="-32" y="-192"/>
      <point x="7" y="-197"/>
      <point x="51" y="-197" type="curve" smooth="yes"/>
    </contour>
  </outline>
</glyph>
<glyph name="fi" format="1">
  <advance width="528"/>
  <unicode hex="FB01"/>
  <outline>
    <contour>
      <point x="173" y="-86"/>
      <point x="210" y="-30"/>
      <point x="210" y="63" type="curve" smooth="yes"/>
      <point x="210" y="107"/>
      <point x="203" y="176"/>
      <point x="203" y="284" type="curve" smooth="yes"/>
      <point x="203" y="323" type="line"/>
      <point x="344" y="323" type="line"/>
      <point x="345" y="307"/>
      <point x="345" y="289"/>
      <point x="345" y="272" type="curve" smooth="yes"/>
      <point x="345" y="208"/>
      <point x="341" y="144"/>
      <point x="341" y="73" type="curve" smooth="yes"/>
      <point x="341" y="10"/>
      <point x="363" y="-9"/>
      <point x="418" y="-9" type="curve" smooth="yes"/>
      <point x="441" y="-9"/>
      <point x="479" y="0"/>
      <point x="510" y="27" type="curve"/>
      <point x="479" y="61"/>
      <point x="471" y="84"/>
      <point x="471" y="192" type="curve" smooth="yes"/>
      <point x="471" y="294"/>
      <point x="476" y="379"/>
      <point x="483" y="417" type="curve"/>
      <point x="431" y="417"/>
      <point x="388" y="413"/>
      <point x="336" y="397" type="curve"/>
      <point x="205" y="397" type="line"/>
      <point x="209" y="459"/>
      <point x="218" y="481"/>
      <point x="238" y="496" type="curve"/>
      <point x="276" y="489"/>
      <point x="310" y="474"/>
      <point x="382" y="435" type="curve"/>
      <point x="399" y="457"/>
      <point x="421" y="526"/>
      <point x="421" y="561" type="curve"/>
      <point x="377" y="577"/>
      <point x="324" y="585"/>
      <point x="265" y="585" type="curve" smooth="yes"/>
      <point x="165" y="585"/>
      <point x="89" y="517"/>
      <point x="70" y="411" type="curve"/>
      <point x="48" y="395"/>
      <point x="26" y="381"/>
      <point x="0" y="368" type="curve"/>
      <point x="0" y="329"/>
      <point x="10" y="321"/>
      <point x="70" y="320" type="curve"/>
      <point x="85" y="10"/>
      <point x="78" y="-54"/>
      <point x="31" y="-127" type="curve"/>
      <point x="67" y="-159" type="line"/>
    </contour>
    <contour>
      <point x="463" y="0" type="move" name="ogonek"/>
    </contour>
    <contour>
      <point x="153" y="0" type="move" name="bottom"/>
    </contour>
    <contour>
      <point x="153" y="407" type="move" name="top"/>
    </contour>
  </outline>
</glyph>
<glyph name="f_f" format="1">
  <advance width="572"/>
  <outline>
    <contour>
      <point x="173" y="-86"/>
      <point x="210" y="-30"/>
      <point x="210" y="63" type="curve" smooth="yes"/>
      <point x="210" y="107"/>
      <point x="203" y="176"/>
      <point x="203" y="284" type="curve" smooth="yes"/>
      <point x="203" y="323" type="line"/>
      <point x="346" y="323" type="line"/>
      <point x="361" y="10"/>
      <point x="354" y="-54"/>
      <point x="307" y="-127" type="curve"/>
      <point x="343" y="-159" type="line"/>
      <point x="449" y="-86"/>
      <point x="486" y="-30"/>
      <point x="486" y="63" type="curve" smooth="yes"/>
      <point x="486" y="107"/>
      <point x="479" y="176"/>
      <point x="479" y="284" type="curve" smooth="yes"/>
      <point x="479" y="323" type="line"/>
      <point x="517" y="322"/>
      <point x="545" y="318"/>
      <point x="568" y="311" type="curve"/>
      <point x="580" y="342"/>
      <point x="585" y="368"/>
      <point x="585" y="404" type="curve"/>
      <point x="562" y="400"/>
      <point x="526" y="397"/>
      <point x="481" y="396" type="curve"/>
      <point x="485" y="459"/>
      <point x="494" y="481"/>
      <point x="514" y="496" type="curve"/>
      <point x="544" y="489"/>
      <point x="571" y="474"/>
      <point x="628" y="435" type="curve"/>
      <point x="641" y="457"/>
      <point x="657" y="526"/>
      <point x="657" y="561" type="curve"/>
      <point x="624" y="577"/>
      <point x="585" y="585"/>
      <point x="541" y="585" type="curve" smooth="yes"/>
      <point x="498" y="585"/>
      <point x="459" y="572"/>
      <point x="428" y="550" type="curve"/>
      <point x="380" y="573"/>
      <point x="325" y="585"/>
      <point x="265" y="585" type="curve" smooth="yes"/>
      <point x="165" y="585"/>
      <point x="89" y="517"/>
      <point x="70" y="411" type="curve"/>
      <point x="48" y="395"/>
      <point x="26" y="381"/>
      <point x="0" y="368" type="curve"/>
      <point x="0" y="329"/>
      <point x="10" y="321"/>
      <point x="70" y="320" type="curve"/>
      <point x="85" y="10"/>
      <point x="78" y="-54"/>
      <point x="31" y="-127" type="curve"/>
      <point x="67" y="-159" type="line"/>
    </contour>
    <contour>
      <point x="210" y="452"/>
      <point x="219" y="472"/>
      <point x="238" y="486" type="curve"/>
      <point x="372" y="486" type="line"/>
      <point x="358" y="460"/>
      <point x="348" y="430"/>
      <point x="344" y="397" type="curve"/>
      <point x="206" y="397" type="line"/>
    </contour>
  </outline>
</glyph>
<glyph name="f_f_i" format="1">
  <advance width="804"/>
  <outline>
    <contour>
      <point x="173" y="-86"/>
      <point x="210" y="-30"/>
      <point x="210" y="63" type="curve" smooth="yes"/>
      <point x="210" y="107"/>
      <point x="203" y="176"/>
      <point x="203" y="284" type="curve" smooth="yes"/>
      <point x="203" y="323" type="line"/>
      <point x="346" y="323" type="line"/>
      <point x="361" y="10"/>
      <point x="354" y="-54"/>
      <point x="307" y="-127" type="curve"/>
      <point x="343" y="-159" type="line"/>
      <point x="449" y="-86"/>
      <point x="486" y="-30"/>
      <point x="486" y="63" type="curve" smooth="yes"/>
      <point x="486" y="107"/>
      <point x="479" y="176"/>
      <point x="479" y="284" type="curve" smooth="yes"/>
      <point x="479" y="323" type="line"/>
      <point x="620" y="323" type="line"/>
      <point x="621" y="307"/>
      <point x="621" y="289"/>
      <point x="621" y="272" type="curve" smooth="yes"/>
      <point x="621" y="208"/>
      <point x="617" y="144"/>
      <point x="617" y="73" type="curve" smooth="yes"/>
      <point x="617" y="10"/>
      <point x="639" y="-9"/>
      <point x="694" y="-9" type="curve" smooth="yes"/>
      <point x="717" y="-9"/>
      <point x="755" y="0"/>
      <point x="786" y="27" type="curve"/>
      <point x="755" y="61"/>
      <point x="747" y="84"/>
      <point x="747" y="192" type="curve" smooth="yes"/>
      <point x="747" y="294"/>
      <point x="752" y="379"/>
      <point x="759" y="417" type="curve"/>
      <point x="707" y="417"/>
      <point x="664" y="413"/>
      <point x="612" y="397" type="curve"/>
      <point x="481" y="397" type="line"/>
      <point x="485" y="459"/>
      <point x="494" y="481"/>
      <point x="514" y="496" type="curve"/>
      <point x="552" y="489"/>
      <point x="586" y="474"/>
      <point x="658" y="435" type="curve"/>
      <point x="675" y="457"/>
      <point x="697" y="526"/>
      <point x="697" y="561" type="curve"/>
      <point x="653" y="577"/>
      <point x="600" y="585"/>
      <point x="541" y="585" type="curve" smooth="yes"/>
      <point x="498" y="585"/>
      <point x="459" y="572"/>
      <point x="428" y="550" type="curve"/>
      <point x="380" y="573"/>
      <point x="325" y="585"/>
      <point x="265" y="585" type="curve" smooth="yes"/>
      <point x="165" y="585"/>
      <point x="89" y="517"/>
      <point x="70" y="411" type="curve"/>
      <point x="48" y="395"/>
      <point x="26" y="381"/>
      <point x="0" y="368" type="curve"/>
      <point x="0" y="329"/>
      <point x="10" y="321"/>
      <point x="70" y="320" type="curve"/>
      <point x="85" y="10"/>
      <point x="78" y="-54"/>
      <point x="31" y="-127" type="curve"/>
      <point x="67" y="-159" type="line"/>
    </contour>
    <contour>
      <point x="210" y="452"/>
      <point x="219" y="472"/>
      <point x="238" y="486" type="curve"/>
      <point x="372" y="486" type="line"/>
      <point x="358" y="460"/>
      <point x="348" y="430"/>
      <point x="344" y="397" type="curve"/>
      <point x="206" y="397" type="line"/>
    </contour>
  </outline>
</glyph>
<glyph name="f_j" format="1">
  <advance width="528"/>
  <outline>
    <contour>
      <point x="419" y="-111"/>
      <point x="489" y="-63"/>
      <point x="489" y="63" type="curve" smooth="yes"/>
      <point x="489" y="110"/>
      <point x="486" y="129"/>
      <point x="486" y="172" type="curve" smooth="yes"/>
      <point x="486" y="257"/>
      <point x="488" y="374"/>
      <point x="493" y="417" type="curve"/>
      <point x="438" y="417"/>
      <point x="391" y="413"/>
      <point x="336" y="397" type="curve"/>
      <point x="205" y="397" type="line"/>
      <point x="209" y="459"/>
      <point x="218" y="481"/>
      <point x="238" y="496" type="curve"/>
      <point x="276" y="489"/>
      <point x="310" y="474"/>
      <point x="382" y="435" type="curve"/>
      <point x="399" y="457"/>
      <point x="421" y="526"/>
      <point x="421" y="561" type="curve"/>
      <point x="377" y="577"/>
      <point x="324" y="585"/>
      <point x="265" y="585" type="curve" smooth="yes"/>
      <point x="165" y="585"/>
      <point x="89" y="517"/>
      <point x="70" y="411" type="curve"/>
      <point x="48" y="395"/>
      <point x="26" y="381"/>
      <point x="0" y="368" type="curve"/>
      <point x="0" y="329"/>
      <point x="10" y="321"/>
      <point x="70" y="320" type="curve"/>
      <point x="85" y="10"/>
      <point x="78" y="-54"/>
      <point x="31" y="-127" type="curve"/>
      <point x="67" y="-159" type="line"/>
      <point x="173" y="-86"/>
      <point x="210" y="-30"/>
      <point x="210" y="63" type="curve" smooth="yes"/>
      <point x="210" y="107"/>
      <point x="203" y="176"/>
      <point x="203" y="284" type="curve" smooth="yes"/>
      <point x="203" y="323" type="line"/>
      <point x="353" y="323" type="line"/>
      <point x="356" y="281"/>
      <point x="357" y="215"/>
      <point x="357" y="106" type="curve" smooth="yes"/>
      <point x="357" y="-42"/>
      <point x="324" y="-93"/>
      <point x="258" y="-151" type="curve"/>
      <point x="279" y="-189" type="line"/>
    </contour>
  </outline>
</glyph>
<glyph name="four.dnom" format="1">
  <advance width="361"/>
  <outline>
    <contour>
      <point x="245" y="-3"/>
      <point x="262" y="-2"/>
      <point x="279" y="0" type="curve"/>
      <point x="278" y="14"/>
      <point x="276" y="33"/>
      <point x="276" y="47" type="curve"/>
      <point x="296" y="47" type="line"/>
      <point x="310" y="71"/>
      <point x="316" y="103"/>
      <point x="316" y="133" type="curve"/>
      <point x="305" y="130"/>
      <point x="293" y="128"/>
      <point x="276" y="127" type="curve"/>
      <point x="276" y="179" type="line"/>
      <point x="256" y="181"/>
      <point x="237" y="182"/>
      <point x="221" y="182" type="curve"/>
      <point x="174" y="124" type="line"/>
      <point x="114" y="124" type="line"/>
      <point x="176" y="200"/>
      <point x="223" y="246"/>
      <point x="249" y="268" type="curve"/>
      <point x="213" y="280"/>
      <point x="178" y="284"/>
      <point x="132" y="284" type="curve"/>
      <point x="74" y="198"/>
      <point x="27" y="122"/>
      <point x="27" y="88" type="curve" smooth="yes"/>
      <point x="27" y="65"/>
      <point x="36" y="48"/>
      <point x="52" y="36" type="curve"/>
      <point x="73" y="43"/>
      <point x="111" y="47"/>
      <point x="175" y="47" type="curve"/>
      <point x="175" y="32"/>
      <point x="174" y="15"/>
      <point x="173" y="0" type="curve"/>
      <point x="193" y="-2"/>
      <point x="212" y="-3"/>
      <point x="228" y="-3" type="curve" smooth="yes"/>
    </contour>
  </outline>
</glyph>
<glyph name="one.dnom" format="1">
  <advance width="361"/>
  <outline>
    <contour>
      <point x="223" y="-3"/>
      <point x="241" y="-2"/>
      <point x="258" y="0" type="curve"/>
      <point x="253" y="52"/>
      <point x="251" y="104"/>
      <point x="251" y="157" type="curve" smooth="yes"/>
      <point x="251" y="196"/>
      <point x="252" y="235"/>
      <point x="255" y="274" type="curve"/>
      <point x="235" y="276"/>
      <point x="217" y="277"/>
      <point x="202" y="277" type="curve"/>
      <point x="178" y="258"/>
      <point x="109" y="216"/>
      <point x="67" y="197" type="curve"/>
      <point x="78" y="176"/>
      <point x="87" y="159"/>
      <point x="102" y="138" type="curve"/>
      <point x="157" y="171" type="line"/>
      <point x="157" y="143" type="line" smooth="yes"/>
      <point x="157" y="103"/>
      <point x="155" y="45"/>
      <point x="151" y="0" type="curve"/>
      <point x="172" y="-2"/>
      <point x="191" y="-3"/>
      <point x="207" y="-3" type="curve" smooth="yes"/>
    </contour>
  </outline>
</glyph>
<glyph name="seven.dnom" format="1">
  <advance width="361"/>
  <outline>
    <contour>
      <point x="290" y="170" type="line" smooth="yes"/>
      <point x="307" y="200"/>
      <point x="315" y="226"/>
      <point x="315" y="241" type="curve" smooth="yes"/>
      <point x="315" y="257"/>
      <point x="308" y="274"/>
      <point x="296" y="284" type="curve"/>
      <point x="280" y="275"/>
      <point x="250" y="268"/>
      <point x="184" y="268" type="curve" smooth="yes"/>
      <point x="123" y="268"/>
      <point x="75" y="270"/>
      <point x="53" y="274" type="curve"/>
      <point x="53" y="244"/>
      <point x="62" y="209"/>
      <point x="77" y="184" type="curve"/>
      <point x="89" y="191"/>
      <point x="107" y="193"/>
      <point x="133" y="193" type="curve" smooth="yes"/>
      <point x="220" y="193" type="line"/>
      <point x="152" y="97"/>
      <point x="106" y="39"/>
      <point x="76" y="13" type="curve"/>
      <point x="113" y="1"/>
      <point x="149" y="-3"/>
      <point x="194" y="-3" type="curve"/>
    </contour>
  </outline>
</glyph>
<glyph name="three.dnom" format="1">
  <advance width="361"/>
  <outline>
    <contour>
      <point x="254" y="-6"/>
      <point x="303" y="28"/>
      <point x="303" y="89" type="curve" smooth="yes"/>
      <point x="303" y="117"/>
      <point x="284" y="151"/>
      <point x="234" y="163" type="curve"/>
      <point x="269" y="180"/>
      <point x="295" y="201"/>
      <point x="295" y="239" type="curve" smooth="yes"/>
      <point x="295" y="254"/>
      <point x="288" y="272"/>
      <point x="279" y="284" type="curve"/>
      <point x="255" y="274"/>
      <point x="218" y="268"/>
      <point x="165" y="268" type="curve" smooth="yes"/>
      <point x="116" y="268"/>
      <point x="78" y="270"/>
      <point x="59" y="274" type="curve"/>
      <point x="59" y="241"/>
      <point x="68" y="207"/>
      <point x="81" y="184" type="curve"/>
      <point x="94" y="190"/>
      <point x="115" y="193"/>
      <point x="151" y="193" type="curve" smooth="yes"/>
      <point x="216" y="193" type="line"/>
      <point x="146" y="152" type="line" smooth="yes"/>
      <point x="118" y="136"/>
      <point x="112" y="122"/>
      <point x="112" y="115" type="curve" smooth="yes"/>
      <point x="112" y="106"/>
      <point x="139" y="93"/>
      <point x="157" y="93" type="curve"/>
      <point x="166" y="111"/>
      <point x="182" y="116"/>
      <point x="182" y="116" type="curve"/>
      <point x="196" y="111"/>
      <point x="205" y="99"/>
      <point x="205" y="86" type="curve" smooth="yes"/>
      <point x="205" y="63"/>
      <point x="185" y="51"/>
      <point x="149" y="51" type="curve" smooth="yes"/>
      <point x="113" y="51"/>
      <point x="82" y="63"/>
      <point x="65" y="82" type="curve"/>
      <point x="57" y="63"/>
      <point x="54" y="44"/>
      <point x="54" y="18" type="curve"/>
      <point x="87" y="0"/>
      <point x="125" y="-6"/>
      <point x="166" y="-6" type="curve" smooth="yes"/>
    </contour>
  </outline>
</glyph>
<glyph name="two.dnom" format="1">
  <advance width="361"/>
  <outline>
    <contour>
      <point x="313" y="16"/>
      <point x="318" y="58"/>
      <point x="318" y="86" type="curve"/>
      <point x="291" y="78"/>
      <point x="248" y="72"/>
      <point x="213" y="72" type="curve" smooth="yes"/>
      <point x="204" y="72"/>
      <point x="197" y="72"/>
      <point x="190" y="73" type="curve"/>
      <point x="261" y="103"/>
      <point x="306" y="149"/>
      <point x="306" y="200" type="curve" smooth="yes"/>
      <point x="306" y="246"/>
      <point x="258" y="276"/>
      <point x="186" y="276" type="curve" smooth="yes"/>
      <point x="139" y="276"/>
      <point x="90" y="268"/>
      <point x="56" y="255" type="curve"/>
      <point x="56" y="228"/>
      <point x="68" y="188"/>
      <point x="88" y="165" type="curve"/>
      <point x="119" y="188"/>
      <point x="156" y="205"/>
      <point x="185" y="210" type="curve"/>
      <point x="199" y="210"/>
      <point x="208" y="201"/>
      <point x="208" y="189" type="curve" smooth="yes"/>
      <point x="208" y="149"/>
      <point x="156" y="95"/>
      <point x="54" y="33" type="curve"/>
      <point x="54" y="0" type="line"/>
      <point x="113" y="4"/>
      <point x="267" y="2"/>
      <point x="308" y="-3" type="curve"/>
    </contour>
  </outline>
</glyph>
<glyph name="zero.dnom" format="1">
  <advance width="361"/>
  <outline>
    <contour>
      <point x="267" y="-6"/>
      <point x="334" y="56"/>
      <point x="334" y="145" type="curve" smooth="yes"/>
      <point x="334" y="224"/>
      <point x="278" y="277"/>
      <point x="197" y="277" type="curve" smooth="yes"/>
      <point x="97" y="277"/>
      <point x="27" y="216"/>
      <point x="27" y="130" type="curve" smooth="yes"/>
      <point x="27" y="50"/>
      <point x="84" y="-6"/>
      <point x="169" y="-6" type="curve" smooth="yes"/>
    </contour>
    <contour>
      <point x="148" y="75"/>
      <point x="127" y="104"/>
      <point x="127" y="149" type="curve" smooth="yes"/>
      <point x="127" y="188"/>
      <point x="151" y="222"/>
      <point x="186" y="222" type="curve"/>
      <point x="217" y="214"/>
      <point x="235" y="185"/>
      <point x="235" y="146" type="curve" smooth="yes"/>
      <point x="235" y="102"/>
      <point x="215" y="75"/>
      <point x="179" y="75" type="curve" smooth="yes"/>
    </contour>
  </outline>
</glyph>
